<?xml version="1.0" encoding="UTF-8" standalone="no"?>
<!-- Created with Inkscape (http://www.inkscape.org/) -->

<svg
   xmlns:dc="http://purl.org/dc/elements/1.1/"
   xmlns:cc="http://creativecommons.org/ns#"
   xmlns:rdf="http://www.w3.org/1999/02/22-rdf-syntax-ns#"
   xmlns:svg="http://www.w3.org/2000/svg"
   xmlns="http://www.w3.org/2000/svg"
   xmlns:sodipodi="http://sodipodi.sourceforge.net/DTD/sodipodi-0.dtd"
   xmlns:inkscape="http://www.inkscape.org/namespaces/inkscape"
   width="410"
   height="310"
   id="svg2"
   version="1.1"
   inkscape:version="0.48.4 r9939"
   sodipodi:docname="icons.svg"
   inkscape:export-filename="/home/thp/src/numptyphysics/data/icons.png"
   inkscape:export-xdpi="90"
   inkscape:export-ydpi="90">
  <defs
     id="defs4" />
  <sodipodi:namedview
     id="base"
     pagecolor="#ffffff"
     bordercolor="#666666"
     borderopacity="1.0"
     inkscape:pageopacity="0.0"
     inkscape:pageshadow="2"
     inkscape:zoom="1"
     inkscape:cx="268.79231"
     inkscape:cy="86.166512"
     inkscape:document-units="px"
     inkscape:current-layer="layer1"
     showgrid="false"
     showguides="true"
     inkscape:guide-bbox="true"
     inkscape:window-width="1615"
     inkscape:window-height="1026"
     inkscape:window-x="65"
     inkscape:window-y="24"
     inkscape:window-maximized="1"
     fit-margin-top="10"
     fit-margin-left="10"
     fit-margin-right="10"
     fit-margin-bottom="10" />
  <metadata
     id="metadata7">
    <rdf:RDF>
      <cc:Work
         rdf:about="">
        <dc:format>image/svg+xml</dc:format>
        <dc:type
           rdf:resource="http://purl.org/dc/dcmitype/StillImage" />
        <dc:title></dc:title>
      </cc:Work>
    </rdf:RDF>
  </metadata>
  <g
     inkscape:label="Layer 1"
     inkscape:groupmode="layer"
     id="layer1"
     transform="translate(-2,-5.3621826)">
    <g
       id="g4255"
       transform="matrix(0.80727065,0,0,0.80727065,-256.6319,2.146833)">
      <path
         inkscape:connector-curvature="0"
         id="path4095"
         d="m 376,303.36218 c 0.33333,-1.33333 -0.33333,-4.33333 1,-4 1.33333,0.33334 -1.97183,4.97183 -1,4 1.2693,-1.26929 1.43235,-3.29706 2,-5 0.10541,-0.31623 0.33333,-1 0,-1 -1.99686,0 -0.21698,3.77123 -2,6 -9.22728,6.59092 -4.8858,2.24013 -9,8 -0.96873,1.35623 -1.91535,2.73457 -3,4 -0.92036,1.07375 -2.17801,1.84921 -3,3 -0.86646,1.21304 -1.2604,2.7057 -2,4 -3.91547,6.85207 -0.0578,-0.25626 -4,5 -0.89443,1.19257 -1.1731,2.75966 -2,4 -0.26149,0.39223 -1,0.5286 -1,1 0,0.47141 0.5286,1 1,1 0.19291,0 1.51446,-1.6763 2,-2 1.24035,-0.8269 2.72173,-1.23303 4,-2 6.15582,-3.69349 0.28992,-0.23193 5,-4 1.87698,-1.50158 4.12302,-2.49842 6,-4 1.84053,-1.47242 3.18929,-3.49107 5,-5 0.92329,-0.7694 2,-1.33333 3,-2 2,-1.33333 4,-2.66666 6,-4 1,-0.66666 1.96942,-1.38165 3,-2 3.02705,-1.81623 1.09006,-0.0901 3,-2 0.33333,-0.33333 1,-0.52859 1,-1 0,-1.21232 -1.24891,0.24891 -2,1 -0.33333,0.33334 -0.73851,0.60777 -1,1 -2.6032,3.9048 1.13186,0.0418 -3,5 -0.90536,1.08643 -2.17801,1.84921 -3,3 -0.86646,1.21304 -1.13354,2.78696 -2,4 -0.82199,1.1508 -2.07964,1.92625 -3,3 -8.44555,9.85314 1.33134,-0.91417 -5,7 -0.58897,0.73621 -1.43431,1.24576 -2,2 -0.44721,0.59629 -0.66667,1.33334 -1,2 -0.33333,0.66667 -1,1.25465 -1,2 0,0.33334 0.66667,0 1,0 0.33333,0 0.72265,0.1849 1,0 0.78446,-0.52297 1.33333,-1.33333 2,-2 0.66667,-0.66666 1.33333,-1.33333 2,-2 1,-1 1.92625,-2.07964 3,-3 1.26543,-1.08465 2.68441,-1.97676 4,-3 3,-2.33333 6,-4.66666 9,-7 1.68477,-1.31038 3.25145,-2.77601 5,-4 2.10512,-1.47358 5.81008,-3.24806 8,-5 0.73621,-0.58897 1.33333,-1.33333 2,-2 0.33333,-0.33333 0.57836,-0.78918 1,-1 0.29814,-0.14907 1.2357,-0.2357 1,0 -0.52705,0.52705 -1.37983,0.58655 -2,1 -0.39223,0.26149 -0.62288,0.71716 -1,1 -0.96148,0.72111 -2.07671,1.2306 -3,2 -1.08643,0.90536 -1.92625,2.07964 -3,3 -1.26543,1.08465 -2.74571,1.90249 -4,3 -1.41907,1.24169 -2.58093,2.75831 -4,4 -1.25429,1.09751 -2.82149,1.82149 -4,3 -1.47486,1.47487 -2.59334,3.96669 -3,6 -0.13074,0.65372 0,1.33334 0,2 0,0.33334 -0.2357,0.7643 0,1 0.2357,0.2357 0.66667,0 1,0 2.5307,0 2.42372,-0.81779 4,-2 3.26823,-2.45117 6.87805,-4.32404 10,-7 3.09624,-2.65392 2.46374,-3.23187 6,-5 0.94281,-0.4714 2.09612,-0.45767 3,-1 1.47839,-0.88703 1.75936,-3.12032 4,-2 0.29814,0.14907 0.14907,0.70186 0,1 -0.21082,0.42164 -0.73851,0.60777 -1,1 -1.57821,2.36732 -0.52088,2.52088 -3,5 -0.84984,0.84984 -2.15016,1.15017 -3,2 -1.69967,1.69968 -2.49842,4.12303 -4,6 -0.58897,0.73621 -1.43431,1.24576 -2,2 -0.48707,0.64943 -2.73102,5.19305 -3,6 -0.10541,0.31623 0.14907,0.70186 0,1 -0.21082,0.42164 -1,0.5286 -1,1 0,0.33334 0.70186,-0.14907 1,0 0.42164,0.21082 0.5286,1 1,1 0.4714,0 0.60777,-0.73851 1,-1 0.62017,-0.41345 1.30795,-0.72318 2,-1 0.9787,-0.39148 2.12294,-0.41529 3,-1 1.1767,-0.78446 1.84921,-2.178 3,-3 0.0319,-0.0228 7.9049,-3.94566 8,-4 1.0435,-0.59628 1.96942,-1.38165 3,-2 0.63914,-0.38348 1.37983,-0.58655 2,-1 0.39223,-0.26149 0.5286,-1 1,-1 0.33333,0 0,0.66667 0,1 0,1.40277 0.14907,1.46791 -1,3 -0.56569,0.75425 -1.43431,1.24576 -2,2 -1.15856,1.54474 -1.88984,4.33477 -3,6 -1.2357,1.85356 -1,0.0917 -1,2 0,0.33334 -0.33333,1 0,1 0.4714,0 0.55279,-0.85093 1,-1 0.63246,-0.21082 1.36754,0.21082 2,0 0.44721,-0.14907 0.60777,-0.73851 1,-1 1.24035,-0.8269 2.75965,-1.1731 4,-2 0.39223,-0.26149 0.57836,-0.78918 1,-1 0.29814,-0.14907 0.70186,0.14907 1,0 0.26035,-0.13017 1.21827,-1.78172 2,-1 0.4714,0.47141 -0.29814,1.40372 0,2 1.2357,2.47141 1,-0.34518 1,2"
         style="opacity:0.5;fill:none;stroke:#6ebc5b;stroke-width:12.3874197;stroke-linecap:round;stroke-linejoin:round;stroke-miterlimit:4;stroke-opacity:1;stroke-dasharray:none" />
      <path
         inkscape:connector-curvature="0"
         id="path3851"
         d="m 367,309.36218 c -4.18197,-8.46245 4.04847,4.56274 -6,-4 -10.52041,7.30741 5.32192,17.94405 10,9 -2.03116,-3.63902 -5.17986,-6.37403 -9,-8"
         style="fill:none;stroke:#000000;stroke-width:3.71622586;stroke-linecap:butt;stroke-linejoin:miter;stroke-miterlimit:4;stroke-opacity:1;stroke-dasharray:none" />
      <path
         inkscape:connector-curvature="0"
         id="path3853"
         d="m 389,308.36218 c -9.69986,-6.90467 7.1282,3.81958 -6,-3 -10.93614,6.08147 0.68623,23.81234 11,15 6.37309,-5.53845 -4.76802,-13.28183 -11,-14"
         style="fill:none;stroke:#000000;stroke-width:3.71622586;stroke-linecap:butt;stroke-linejoin:miter;stroke-miterlimit:4;stroke-opacity:1;stroke-dasharray:none" />
      <path
         inkscape:connector-curvature="0"
         id="path3855"
         d="m 417,307.36218 c -11.82931,-10.32683 -19.47163,14.38526 -4,13 11.20323,-0.64874 10.27598,-16.85789 -2,-12"
         style="fill:none;stroke:#000000;stroke-width:3.71622586;stroke-linecap:butt;stroke-linejoin:miter;stroke-miterlimit:4;stroke-opacity:1;stroke-dasharray:none" />
      <path
         inkscape:connector-curvature="0"
         id="path3857"
         d="m 367,328.36218 c -9.59342,-3.31899 -13.47854,19.2016 -0.24797,14.20203 5.96054,-3.28932 12.60783,-14.18382 0.24797,-14.20203 z"
         style="fill:none;stroke:#000000;stroke-width:3.71622586;stroke-linecap:butt;stroke-linejoin:miter;stroke-miterlimit:4;stroke-opacity:1;stroke-dasharray:none" />
      <path
         inkscape:connector-curvature="0"
         id="path3859"
         d="m 387,328.36218 c -8.0879,-0.91993 5.05907,-1.29058 -6.02866,0.24144 -6.12537,9.22347 2.90204,23.35512 12.02866,10.75856 3.66181,-5.61831 -1.07027,-8.65964 -6,-11 z"
         style="fill:none;stroke:#000000;stroke-width:3.71622586;stroke-linecap:butt;stroke-linejoin:miter;stroke-miterlimit:4;stroke-opacity:1;stroke-dasharray:none" />
      <path
         inkscape:connector-curvature="0"
         id="path3861"
         d="m 416,330.36218 c -15.01249,-11.69185 -23.88737,18.73783 -5,15 12.07959,-4.77522 16.26279,-15.44794 -1,-17"
         style="fill:none;stroke:#000000;stroke-width:3.71622586;stroke-linecap:butt;stroke-linejoin:miter;stroke-miterlimit:4;stroke-opacity:1;stroke-dasharray:none" />
    </g>
    <g
       id="g4246"
       transform="matrix(0.81948288,0,0,0.81948288,-262.9693,-23.981491)">
      <path
         inkscape:connector-curvature="0"
         id="path4097"
         d="m 358,213.36218 c -0.33333,1.33334 -1,2.62563 -1,4 0,0.74536 0.81922,1.2769 1,2 0.0617,0.2467 0.10088,6.49561 0,7 -0.20672,1.03363 -0.66667,2 -1,3 -0.33333,1 -0.66667,2 -1,3 -0.33333,1 -0.82671,1.96025 -1,3 -0.1644,0.9864 0.19612,2.01942 0,3 -0.0291,0.14528 -2.44826,4 0,4 0.76352,0 1.99642,-2.99283 2,-3 1.60381,-3.20761 3.66403,-6.2747 6,-9 0.92036,-1.07375 2.17801,-1.8492 3,-3 0.86646,-1.21304 1.13354,-2.78696 2,-4 0.82199,-1.15079 2.11655,-1.89568 3,-3 0.46562,-0.58202 0.47295,-1.47295 1,-2 0.52705,-0.52704 1.37983,-0.58655 2,-1 0.39223,-0.26149 1,-1.4714 1,-1 0,0.0754 -1.85976,3.64941 -2,4 -1.86983,4.67457 0.0349,1.689 -3,7 -1.19257,2.087 -2.92503,3.85007 -4,6 -2.33868,0.52042 -0.61001,2.83002 -1,4 -0.2357,0.70711 -1,1.25465 -1,2 0,0.33334 0.7643,0.2357 1,0 0.52705,-0.52704 0.55279,-1.40371 1,-2 0.56569,-0.75424 1.33333,-1.33333 2,-2 0.66667,-1.33333 1.20992,-2.73588 2,-4 0.88333,-1.41333 2,-2.66666 3,-4 2,-2.66666 3.8307,-5.46914 6,-8 0.92036,-1.07375 2.11655,-1.89568 3,-3 0.46562,-0.58202 0.58655,-1.37982 1,-2 0.26149,-0.39223 0.66667,-1.33333 1,-1 0.33333,0.33334 -0.73851,0.60777 -1,1 -0.8269,1.24035 -1.33333,2.66667 -2,4 -1.53748,3.07497 -0.58655,1.37983 -3,5 -0.66667,1 -1.46252,1.92503 -2,3 -0.4714,0.94281 -0.60852,2.0213 -1,3 -0.47182,1.17954 -1.73909,2.52182 -1,4 0.14907,0.29815 0.7643,0.2357 1,0 0.2357,-0.2357 -0.1849,-0.72265 0,-1 0.52298,-0.78446 1.51493,-1.19155 2,-2 0.54233,-0.90387 0.47702,-2.08479 1,-3 2.50656,-4.38647 2.96019,-3.45355 6,-7 2.2457,-2.61998 5.17531,-6.95884 7,-10 0.004,-0.007 1.23602,-3 2,-3 0.33333,0 0.10541,0.68377 0,1 -0.90095,2.70284 -3.30984,3.88731 -5,6 -0.75079,0.93849 -1.33333,2 -2,3 -1,1 -2.09464,1.91357 -3,3 -0.76941,0.92329 -1.24921,2.06152 -2,3 -0.7288,0.911 -3,2.43432 -3,4 0,0.33334 0.68377,0.10541 1,0 0.70711,-0.2357 1.37983,-0.58655 2,-1 1.27329,-0.84886 1.1904,-1.65066 2,-3 0.61835,-1.03058 1.33333,-2 2,-3 2.17941,-3.26911 4.44071,-6.36166 6,-10 1.44457,-3.37065 0.73137,-3.19411 2,-7 0.2357,-0.7071 0.58655,-1.37982 1,-2 0.26149,-0.39223 0.66667,-0.66666 1,-1 0.33333,-0.33333 0.5286,-1 1,-1 0.33333,0 0,0.66667 0,1 0,0.33334 0,0.66667 0,1 0,2.25924 0.14907,-0.44721 -1,3 -0.10541,0.31623 0.1849,0.72265 0,1 -0.52298,0.78447 -1.43431,1.24576 -2,2 -0.44721,0.59629 -0.61652,1.36087 -1,2 -0.61835,1.03058 -1.52657,1.89533 -2,3 -0.65378,1.52549 -1.027,5.37834 -2,7 -2.52705,2.52705 -1.57836,1.15673 -3,4 -0.33333,0.66667 -0.58655,1.37983 -1,2 -0.26149,0.39223 -0.85093,0.55279 -1,1 -0.21082,0.63246 0.29814,1.40372 0,2 -0.14907,0.29815 -1,0.33334 -1,0 0,-0.4714 0.73851,-0.60777 1,-1 4.57173,-6.85759 -4.51274,4.51274 4,-4 1.17851,-1.17851 1.91535,-2.73457 3,-4 0.92036,-1.07375 2.07964,-1.92625 3,-3 1.08465,-1.26543 1.91535,-2.73457 3,-4 1.53393,-1.78958 3.58579,-3.11438 5,-5 0.44721,-0.59628 0.58655,-1.37982 1,-2 0.15621,-0.23431 1.29191,-1.70809 2,-1 0.76332,0.76332 -0.84379,1.76569 -1,2 -0.8269,1.24035 -1.33333,2.66667 -2,4 -3.90645,7.8129 0.19257,0.21115 -5,8 -1.07814,1.61722 -1.92186,3.38279 -3,5 -0.9245,1.38675 -2.0755,2.61325 -3,4 -2.51131,3.76697 -3.09382,5.18764 -5,9 -0.66667,1.33334 -1.2604,2.7057 -2,4 -4.49528,7.86674 0.0557,-1.63935 -3,6 -0.27682,0.69205 -0.81922,1.2769 -1,2 -0.19048,0.76191 -0.57143,2.78572 1,2 0.42164,-0.21082 0.66667,-0.66666 1,-1 1.66667,-1.66666 3.21042,-3.46607 5,-5 9.82753,-8.42359 -2.31737,3.60704 8,-8 5.25473,-5.91157 2.42413,-2.22068 8,-7 1.78958,-1.53393 3.33333,-3.33333 5,-5 0.33333,-0.33333 0.66667,-0.66666 1,-1 0.33333,-0.33333 0.57836,-0.78918 1,-1 1.33333,-0.66666 1,0.33334 1,1 0,0.33334 0.14907,0.70186 0,1 -0.42164,0.84328 -1.47702,1.21554 -2,2 -0.41345,0.62018 -0.61652,1.36087 -1,2 -0.61835,1.03058 -1.40372,1.9565 -2,3 -0.7396,1.2943 -1.13354,2.78696 -2,4 -0.82199,1.1508 -2.21554,1.82331 -3,3 -5.19257,7.78886 3.22864,-1.22863 -3,5 -0.19526,0.19526 -1.7357,1.2643 -1,2 0.70809,0.70809 1.84379,-0.76568 2,-1 0.41345,-0.62017 0.55279,-1.40371 1,-2 1.41421,-1.88562 3.46607,-3.21041 5,-5 1.08465,-1.26543 1.82149,-2.82149 3,-4 1.17851,-1.17851 2.73457,-1.91535 4,-3 1.07375,-0.92036 2,-2 3,-3 0.0684,-0.0684 3.13824,-3.86176 4,-3 0.78482,0.78482 -1.56583,2.56583 -2,3 -2.18986,2.18987 -4.58378,4.16757 -6,7 -0.4714,0.94281 -0.66667,2 -1,3 -0.33333,1 -0.74435,1.97738 -1,3 -0.0808,0.32338 -0.2357,0.7643 0,1 0.2357,0.2357 0.66667,0 1,0 0.33333,0 0.7643,0.2357 1,0 0.2357,-0.2357 -0.2357,-0.7643 0,-1 0.2357,-0.2357 0.70186,0.14907 1,0 0.42164,-0.21082 0.66667,-0.66666 1,-1 0.33333,-0.33333 0.73851,-0.60777 1,-1 0.41345,-0.62017 0.47295,-1.47295 1,-2 0.52705,-0.52704 1.40372,-0.55278 2,-1 0.75425,-0.56568 1.26379,-1.41103 2,-2 0.93849,-0.75079 2.15016,-1.15016 3,-2 0.52705,-0.52704 0.47295,-1.47295 1,-2 0.70772,-0.70772 2.94383,-1.52808 4,-1 0.29814,0.14907 -0.14907,0.70186 0,1 0.21082,0.42164 0.66667,0.66667 1,1"
         style="opacity:0.5;fill:none;stroke:#a4c334;stroke-width:12.20281792;stroke-linecap:round;stroke-linejoin:round;stroke-miterlimit:4;stroke-opacity:1;stroke-dasharray:none" />
      <path
         inkscape:connector-curvature="0"
         id="path3885"
         d="m 390,222.36218 c -10.12734,-2.00668 -20.67852,-0.57036 -31,-1 -11.92145,1.84099 -2.85803,15.1626 6,14 9.71283,-0.72537 17.523,-1.99383 27.11745,-2 2.40207,1.04481 -9.2182,7.77882 -10.11745,10 -11.37843,10.91757 10.55126,9.82921 12.95317,5.93503 6.61125,-3.2872 14.29363,-7.82094 20.04683,-10.93503 8.5273,-3.96313 0.95706,-14.80621 -5,-20 -6.81399,-5.97087 -7.18394,-10.03757 -14,-16 -3.87463,-8.13391 -17.45699,-5.31098 -14,5.55873 0.75821,5.42221 3.62377,9.71325 8,14.44127 z"
         style="fill:none;stroke:#000000;stroke-width:3.66084528;stroke-linecap:butt;stroke-linejoin:miter;stroke-miterlimit:4;stroke-opacity:1;stroke-dasharray:none" />
    </g>
    <g
       id="g4288"
       transform="matrix(0.82099599,0,0,0.82099599,36.03155,-360.71105)">
      <path
         inkscape:connector-curvature="0"
         id="path4109"
         d="m 373.72495,486.36218 c -1.43197,2.41726 -3.95205,3.79137 -5.60164,6 -0.70094,0.93849 -1.16627,2.06152 -1.86722,3 -1.09973,1.47242 -2.67817,2.49151 -3.73442,4 -0.41752,0.59629 -0.44155,1.47296 -0.93361,2 -0.49206,0.52705 -1.37516,0.47296 -1.86722,1 -0.22005,0.2357 0.22006,0.7643 0,1 -0.22005,0.2357 -1.15365,0.2357 -0.9336,0 0.33289,-2.45651 1.98199,-0.41529 2.80082,-1 1.46476,-1.04595 2.35977,-2.82206 3.73443,-4 7.0827,-6.06911 -1.30096,1.43609 5.60164,-3 1.50955,-0.97014 2.26966,-2.95404 3.73443,-4 0.25893,-0.1849 0.99464,0.32686 0.93361,0 -0.32867,-1.76019 -0.19135,-5 -1.86722,-5 -1.55601,0 0.25581,3.35601 0,5 -0.0723,0.46499 -0.62241,0.66667 -0.93361,1 -0.6224,0.66667 -1.2448,1.33334 -1.86721,2 -1.55602,1.66667 -3.25929,3.18929 -4.66804,5 -0.71832,0.92329 -1.2448,2 -1.86721,3 -0.62241,1 -1.16627,2.06152 -1.86721,3 -0.54987,0.73621 -1.47357,1.15673 -1.86722,2 -0.27834,0.59629 0.19682,1.36755 0,2 -0.13917,0.44722 -0.73678,0.57837 -0.93361,1 -0.13917,0.29815 0,0.66667 0,1 0,0.33334 -0.22005,0.7643 0,1 0.22006,0.2357 0.62241,0 0.93361,0 0.3112,0 0.65526,0.14907 0.93361,0 0.39364,-0.21082 0.53996,-0.78918 0.93361,-1 0.27834,-0.14907 0.71355,0.2357 0.9336,0 0.22005,-0.2357 -0.22005,-0.7643 0,-1 0.22005,-0.2357 0.93361,-0.33333 0.93361,0 0,0.66667 -1.31052,-0.29814 -1.86721,0 -0.39365,0.21082 -0.62241,0.66667 -0.93361,1 -0.3112,0.33334 -0.68948,0.60777 -0.93361,1 -0.386,0.62018 -0.54761,1.37983 -0.93361,2 -1.15365,1.85356 -0.9336,0.0917 -0.9336,2 0,0.33334 -0.22005,0.7643 0,1 0.22005,0.2357 0.6224,0 0.9336,0 0.42046,0 2.5167,0.15217 2.80083,0 0.39364,-0.21082 0.51608,-0.85093 0.9336,-1 0.59047,-0.21082 1.27675,0.21082 1.86722,0 0.41752,-0.14907 0.53996,-0.78918 0.9336,-1 0.82988,-0.44444 1.34854,0.11111 0.93361,1 -0.71495,1.53158 -1.66371,0.78202 -2.80082,2 -0.79342,0.84984 -1.16627,2.06152 -1.86721,3 -1.09974,1.47242 -2.67818,2.49151 -3.73443,4 -0.41752,0.59629 -0.62241,1.33334 -0.93361,2 -0.3112,0.66667 -0.54761,1.37983 -0.93361,2 -0.14584,0.23432 -1.64625,1.23669 -0.9336,2 0.42893,0.45945 2.1285,-0.51991 2.80082,-1 0.36619,-0.26149 0.56742,-0.73851 0.9336,-1 4.36325,-3.11569 -1.11827,1.95824 4.66804,-3 0.68733,-0.58897 1.16304,-1.43431 1.86721,-2 4.52172,-3.63245 -0.0547,1.05863 2.80083,-2 0.31119,-0.33333 1.2448,-1.33333 0.9336,-1 -0.62241,0.66667 -1.2448,1.33334 -1.86721,2 -0.62241,0.66667 -1.33908,1.24576 -1.86722,2 -0.41751,0.59629 -0.51608,1.40372 -0.9336,2 -0.52814,0.75425 -1.33909,1.24576 -1.86722,2 -0.41752,0.59629 -0.5476,1.37983 -0.9336,2 -0.14584,0.23432 -1.64625,1.23669 -0.93361,2 0.22005,0.2357 0.62241,0 0.93361,0 0.31119,0 0.65526,0.14907 0.9336,0 0.30174,-0.1616 3.45105,-3.5447 3.73443,-4 0.386,-0.62017 0.71356,-1.29289 0.93361,-2 0.0984,-0.31623 -0.3112,-1 0,-1 0.3112,0 0.13917,0.70186 0,1 -0.19682,0.42164 -0.73679,0.57837 -0.93361,1 -0.13886,0.29748 0,5.57934 0,6 0,0.33334 -0.22005,0.7643 0,1 0.22005,0.2357 0.62241,0 0.93361,0 1.86936,0 0.25804,0.29815 1.86721,-2 0.52813,-0.75424 1.24481,-1.33333 1.86722,-2 0.6224,-0.66666 1.2448,-1.33333 1.86721,-2 0.93361,-1 2.03341,-1.8492 2.80082,-3 0.80894,-1.21304 0.97625,-2.8548 1.86722,-4 0.71832,-0.92328 2.0074,-1.15016 2.80082,-2 0.79342,-0.84983 1.16627,-2.06151 1.86721,-3 1.09974,-1.47242 2.48963,-2.66666 3.73443,-4 0.3112,-0.33333 0.62241,-0.66666 0.93361,-1 0.3112,-0.33333 0.93361,-0.52859 0.93361,-1 0,-0.33333 -0.65527,-0.14907 -0.93361,0 -0.39365,0.21082 -0.62241,0.66667 -0.93361,1 -0.3112,0.33334 -0.73678,0.57837 -0.93361,1 -0.13917,0.29815 0.13918,0.70186 0,1 -0.19682,0.42164 -0.6224,0.66667 -0.9336,1 -0.3112,0.33334 -0.56742,0.73851 -0.93361,1 -0.57899,0.41345 -1.28822,0.58655 -1.86721,1 -0.73238,0.52298 -1.07994,1.57837 -1.86722,2 -0.82987,0.44445 -1.34854,-0.11111 -0.93361,-1 0.19683,-0.42163 0.62241,-0.66666 0.93361,-1 1.24481,-1.33333 2.48962,-2.66666 3.73443,-4 0.93361,-1 1.95557,-1.91357 2.80082,-3 0.71833,-0.92328 1.14889,-2.07671 1.86722,-3 0.84525,-1.08643 1.95557,-1.91357 2.80082,-3 1.43664,-1.84657 2.33254,-4.12302 3.73443,-6 4.03812,-4.32529 0.14632,0.26491 2.80082,-4 0.24413,-0.39223 0.73678,-0.57836 0.93361,-1 0.13917,-0.29814 0.22005,-0.7643 0,-1 -0.68686,-0.7357 -1.68492,0.80474 -1.86722,1 -0.3112,0.33334 -0.66955,0.62288 -0.93361,1 -0.67323,0.96148 -1.07379,2.15017 -1.86721,3 -0.79342,0.84984 -1.93883,1.2306 -2.80082,2 -3.0304,2.70492 -5.37207,6.29508 -8.40247,9 -1.3105,1.16975 -5.60164,3.53372 -5.60164,6 0,0.33334 0.67467,0.1849 0.93361,0 1.46476,-1.04595 2.35976,-2.82206 3.73443,-4 0.87618,-0.75079 1.93883,-1.23059 2.80082,-2 1.0143,-0.90535 1.79836,-2.07964 2.80082,-3 1.18141,-1.08465 2.55301,-1.91535 3.73443,-3 10.70628,-9.82941 -3.97564,3.25836 4.66803,-6 0.79342,-0.84983 2.00741,-1.15016 2.80083,-2 0.49205,-0.52704 0.5476,-1.37982 0.9336,-2 0.48826,-0.78446 1.47357,-1.15672 1.86722,-2 0.13917,-0.29814 0.22005,-0.7643 0,-1 -0.8706,-0.93251 -2.32361,1.65924 -2.80082,2 -0.579,0.41345 -1.31053,0.55279 -1.86722,1 -1.40834,1.13137 -2.32609,2.86863 -3.73443,4 -0.55669,0.44722 -1.31052,0.55279 -1.86721,1 -4.03812,4.32529 0.24732,0.15673 -3.73443,3 -0.36619,0.26149 -0.62241,0.66667 -0.93361,1 -0.3112,0.33334 -0.93361,0.5286 -0.93361,1 0,0.33334 0.65527,0.14907 0.93361,0 0.39365,-0.21082 0.62241,-0.66666 0.93361,-1 0.62241,-0.66666 1.24481,-1.33333 1.86721,-2 1.24481,-1.33333 2.6347,-2.52758 3.73443,-4 1.59978,-2.14192 2.60261,-4.57538 3.73443,-7 0.0838,-0.17954 2.2464,-4 0,-4 -0.4401,0 -0.56742,0.73851 -0.93361,1 -1.158,0.8269 -2.64766,1.06876 -3.73443,2 -1.031,0.88345 -1.78652,2.09465 -2.80082,3 -0.86199,0.76941 -1.93883,1.2306 -2.80082,2 -1.69049,1.50893 -3.11202,3.33334 -4.66803,5 -0.62241,0.66667 -1.33909,1.24576 -1.86722,2 -0.41752,0.59629 -0.54761,1.37983 -0.93361,2 -0.24412,0.39223 -0.73678,0.57837 -0.9336,1 -0.41494,0.88889 0.10373,1.44445 0.9336,1 0.39365,-0.21082 0.56742,-0.73851 0.93361,-1 0.579,-0.41345 1.31052,-0.55278 1.86722,-1 1.40833,-1.13137 2.35976,-2.82206 3.73442,-4 0.87619,-0.75079 1.86722,-1.33333 2.80083,-2 0.9336,-0.66666 1.83866,-1.38165 2.80082,-2 0.5967,-0.38348 1.28822,-0.58655 1.86721,-1 0.36619,-0.26149 0.53996,-0.78918 0.93361,-1 0.77266,-0.4138 1.56356,0.34951 1.86721,1 0.13918,0.29815 0,0.66667 0,1 0,0.33334 0,0.66667 0,1 0,0.66667 0.15096,1.35324 0,2 -0.34934,1.49676 -2.29883,3.92462 -2.80082,5 -0.4401,0.94281 -0.56812,2.0213 -0.93361,3 -0.25844,0.69205 -0.67516,1.30796 -0.9336,2 -0.36549,0.9787 -0.56812,2.0213 -0.93361,3 -0.25844,0.69205 -0.76483,1.2769 -0.93361,2 -0.15095,0.64676 0,1.33334 0,2 0,0.66667 0,1.33334 0,2 0,0.24253 -0.0301,2.96784 0,3 0.22005,0.2357 0.62241,0 0.93361,0 0.3112,0 0.65526,0.14907 0.93361,0 0.39364,-0.21082 0.56742,-0.73851 0.9336,-1 0.579,-0.41345 1.28822,-0.58655 1.86722,-1 0.36619,-0.26149 0.62241,-0.66666 0.93361,-1 0.3112,-0.33333 0.73678,-0.57836 0.9336,-1 0.13918,-0.29814 -0.3112,-1 0,-1 0.3112,0 0.0984,0.68377 0,1 -2.25416,7.24342 0.26916,-1.5766 -1.86721,3 -0.4401,0.94281 -0.56812,2.0213 -0.93361,3 -1.00296,2.68573 -2.80082,4.96657 -2.80082,8 0,0.66667 0,1.33334 0,2 0,0.33334 -0.22005,0.7643 0,1 0.22005,0.2357 0.71356,0.2357 0.93361,0 0.22005,-0.2357 -0.22005,-0.7643 0,-1 0.22005,-0.2357 0.67467,0.1849 0.9336,0 0.73238,-0.52297 1.24481,-1.33333 1.86722,-2 0.62241,-0.66666 1.24481,-1.33333 1.86721,-2 0.62241,-0.66666 1.24481,-1.33333 1.86722,-2 0.62241,-0.66666 1.33908,-1.24575 1.86721,-2 0.41752,-0.59628 0.51609,-1.40371 0.93361,-2 0.52813,-0.75424 1.24481,-1.33333 1.86721,-2 0.62241,-0.66666 -1.33908,1.24576 -1.86721,2 -0.67323,0.96148 -1.16627,2.06152 -1.86721,3 -0.54987,0.73621 -1.41435,1.19155 -1.86722,2 -0.50632,0.90388 -0.4935,2.05719 -0.93361,3 -5.60556,12.0084 1.47578,-4.30122 -3.73443,5 -0.50632,0.90388 -0.56811,2.0213 -0.9336,3 -1.69231,4.53162 -0.0862,0.13849 -1.86722,3 -0.386,0.62018 -0.44155,1.47296 -0.9336,2 -0.22006,0.2357 -0.13918,-0.70185 0,-1 0.19682,-0.42163 0.68947,-0.60777 0.9336,-1 0.91582,-1.4714 1.36113,-3.37377 1.86722,-5 2.34665,-7.54058 -0.81883,1.75412 2.80082,-6 0.4401,-0.94281 0.56812,-2.0213 0.93361,-3 0.6206,-1.66185 1.86143,-3.65841 2.80082,-5 0.26406,-0.37712 0.68948,-0.60777 0.93361,-1 0.77199,-1.24034 1.09521,-2.75965 1.86721,-4 0.48826,-0.78446 1.47357,-1.15672 1.86721,-2 0.13918,-0.29814 -0.13917,-0.70185 0,-1 0.19683,-0.42163 0.62241,-0.66666 0.93361,-1 0.1823,-0.19526 1.18036,-1.7357 1.86722,-1 0.4401,0.47141 -0.44011,1.5286 0,2 0.22005,0.2357 0.6224,0 0.9336,0 0.75159,0 3.14845,0.20922 3.73443,0 1.32032,-0.4714 2.48962,-1.33333 3.73443,-2 0.62241,-0.33333 1.19212,-0.81922 1.86721,-1 0.60382,-0.16169 1.27675,0.21082 1.86722,0 0.41752,-0.14907 0.4935,-1 0.93361,-1 0.31119,0 0,0.66667 0,1 0,1 0.29523,2.05132 0,3 -0.13918,0.44722 -0.73679,0.57837 -0.93361,1 -0.0245,0.0523 -0.0245,2.94769 0,3 0.19682,0.42164 0.62241,0.66667 0.93361,1 0.31119,0.33334 0.53996,0.78918 0.9336,1 0.27835,0.14907 0.71356,-0.2357 0.93361,0 0.22005,0.2357 -0.22005,0.7643 0,1 0.13167,0.14103 2.60931,0.10257 2.80082,0 0.39365,-0.21082 0.53996,-0.78918 0.93361,-1 0.27834,-0.14907 0.71355,0.2357 0.93361,0 0.22005,-0.2357 -0.22006,-0.7643 0,-1 0.22005,-0.2357 0.71355,0.2357 0.9336,0 0.22005,-0.2357 0,-0.66666 0,-1"
         style="opacity:0.5;fill:none;stroke:#59ccd8;stroke-width:12.18032742;stroke-linecap:round;stroke-linejoin:round;stroke-miterlimit:4;stroke-opacity:1;stroke-dasharray:none" />
      <path
         inkscape:connector-curvature="0"
         id="path3869"
         d="m 392,486.36218 c 1.14029,-0.54226 5.14029,-3.20893 6,-4"
         style="fill:none;stroke:#000000;stroke-width:3.65409827;stroke-linecap:butt;stroke-linejoin:miter;stroke-miterlimit:4;stroke-opacity:1;stroke-dasharray:none" />
      <path
         inkscape:connector-curvature="0"
         id="path3887"
         d="m 361,493.36218 c 3.20263,11.82886 -1.87504,22.12301 -3,33 -4.4089,8.32763 3.67444,15.57298 9,10 6.29341,-2.82489 6.95481,-15.0826 7,-24 0.6453,-8.33524 4.5329,-24.29745 -5,-27 -4.81002,-4.6381 -7.48339,3.47591 -8,8 z"
         style="fill:none;stroke:#000000;stroke-width:3.65409827;stroke-linecap:butt;stroke-linejoin:miter;stroke-miterlimit:4;stroke-opacity:1;stroke-dasharray:none" />
      <path
         inkscape:connector-curvature="0"
         id="path3893"
         d="m 392,486.36218 c -8.61782,4.68581 5.6435,-4.00013 -6.04525,3.76494 -2.61219,4.63702 -7.45662,9.53962 -9.95475,14.23506 -3.34068,3.61478 -5.60941,9.29827 0,11 5.16179,5.34031 6.06385,11.40204 11,14 4.4854,3.43551 3.53895,7.2119 12,8 8.98444,-1.45245 1.13125,-13.72262 -4,-16 -9.32909,-4.94648 3.13883,-6.90148 11,-6 5.41817,-0.19261 21.97018,6.40015 17,-4 -1.6114,-7.01185 -12.69474,-5.56705 -19.55873,-7 -7.11993,1.15141 -20.24131,-2.34649 -7.44127,-6 5.68772,-2.28535 11.00039,-14.75956 -0.0571,-13.79642 L 392,486.36218 z"
         style="fill:none;stroke:#000000;stroke-width:3.65409827;stroke-linecap:butt;stroke-linejoin:miter;stroke-miterlimit:4;stroke-opacity:1;stroke-dasharray:none" />
    </g>
    <g
       id="g4264"
       transform="matrix(0.87341947,0,0,0.87341947,-186.22776,-102.07425)">
      <path
         inkscape:connector-curvature="0"
         id="path4101"
         d="m 395,388.36218 c -10.91725,5.45863 -0.89181,-0.0811 -5,3 -0.96148,0.72111 -2.15016,1.15017 -3,2 -0.84984,0.84984 -1.24921,2.06152 -2,3 -0.58897,0.73621 -1.33333,1.33334 -2,2 -2.66667,2.66667 -5.33333,5.33334 -8,8 -0.66667,0.66667 -1.33333,1.33334 -2,2 -0.66667,0.66667 -1.24575,1.43432 -2,2 -0.59628,0.44722 -1.37983,0.58655 -2,1 -0.39223,0.26149 -0.66667,1.33334 -1,1 -0.33333,-0.33333 0.66667,-0.66666 1,-1 0.66667,-0.66666 1.24575,-1.43431 2,-2 0.59628,-0.44721 1.47295,-0.47295 2,-1 0.84984,-0.84983 1.15016,-2.15016 2,-3 0.84984,-0.84983 2,-1.33333 3,-2 2,-1.33333 4,-2.66666 6,-4 1,-0.66666 2.06151,-1.24921 3,-2 4.32529,-4.32529 -0.26491,-0.15672 4,-3 1.85355,-1.2357 0.0917,-1 2,-1 0.33333,0 1,-0.33333 1,0 0,0.66667 -1.5286,-0.4714 -2,0 -0.52705,0.52705 -0.55279,1.40372 -1,2 -0.5307,0.70761 -6.7279,6.80564 -7,7 -1.21304,0.86646 -2.78696,1.13354 -4,2 -3.84984,3.84984 -1.8233,2.21554 -6,5 -1,0.66667 -2.03852,1.27889 -3,2 -0.37712,0.28285 -0.60777,0.73851 -1,1 -0.62017,0.41345 -1.47295,0.47296 -2,1 -0.2357,0.2357 -0.2357,0.7643 0,1 0.2357,0.2357 0.66667,0 1,0 0.66667,0 1.35324,0.16169 2,0 1.22999,-0.30749 4.35477,-2.56984 5,-3 4.61722,-3.07814 1.96942,-1.38165 8,-5 1.66667,-1 3.26155,-2.13077 5,-3 1.60555,-0.80277 3.39445,-1.19722 5,-2 1.73845,-0.86922 3.22387,-2.21061 5,-3 1.25591,-0.55818 2.73676,-0.45861 4,-1 1.10467,-0.47343 1.92503,-1.46251 3,-2 0.59763,-0.29881 2,0.65829 2,-1 0,-1.61148 -1.23958,0.49306 -2,1 -6.85759,4.57173 4.51274,-4.51274 -4,4 -0.84984,0.84984 -2.02201,1.30144 -3,2 -1.35622,0.96873 -2.68441,1.97677 -4,3 -3.97547,3.09204 -7.80876,6.20584 -12,9 -1,0.66667 -2.15016,1.15017 -3,2 -0.52705,0.52705 -0.58655,1.37983 -1,2 -0.11158,0.16737 -2.26628,1.75543 0,1 1.53748,-0.51249 3.85894,-2.23929 5,-3 1,-0.66666 2.02201,-1.30144 3,-2 1.35622,-0.96873 2.58667,-2.11667 4,-3 2.52824,-1.58015 5.4114,-2.5208 8,-4 1.0435,-0.59628 1.92503,-1.46251 3,-2 0.78105,-0.39052 4.12623,-1.12622 5,-2 0.2357,-0.2357 -0.68377,-0.10541 -1,0 -0.70711,0.2357 -1.33333,0.66667 -2,1 -0.66667,0.33334 -1.36086,0.61652 -2,1 -2.41547,0.39937 -3.22409,2.81606 -5,4 -1.24035,0.8269 -2.7057,1.2604 -4,2 -6.85206,3.91547 0.25626,0.0578 -5,4 -1.19257,0.89443 -2.94591,0.94591 -4,2 -0.2357,0.2357 -0.33333,1 0,1 0.93467,0 6.4304,-3.67451 7,-4 1.2943,-0.7396 2.73588,-1.20992 4,-2 2.82666,-1.76666 5.17334,-4.23333 8,-6 1.26412,-0.79007 2.7057,-1.2604 4,-2 9.89414,-5.65379 -5.08764,2.04382 7,-4 0.66667,-0.33333 1.33333,-0.66666 2,-1 0.66667,-0.33333 1.25464,-1 2,-1 0.4714,0 -0.60777,0.73851 -1,1 -0.62017,0.41345 -1.33333,0.66667 -2,1 -1,1 -1.86863,2.15147 -3,3 -1.55492,1.16619 -3.36022,1.9565 -5,3 -2.02791,1.29049 -4.05604,2.58621 -6,4 -10.07701,7.32873 0.37974,0.75835 -11,8 -1.63978,1.0435 -3.46578,1.80672 -5,3 -2.23263,1.73649 -4,4 -6,6 -0.66667,0.66667 -1.33333,1.33334 -2,2 -0.33333,0.33334 -0.78918,0.57837 -1,1 -0.14907,0.29815 -0.33333,1 0,1 0.4714,0 0.57836,-0.78918 1,-1 0.29814,-0.14907 0.66667,0 1,0 0.66667,-0.33333 1.36086,-0.61651 2,-1 4.47222,-2.68333 1.92,-1.61333 7,-5 3.23443,-2.15628 6.66667,-4 10,-6 1.66667,-1 3.26155,-2.13077 5,-3 1.60555,-0.80277 3.39445,-1.19722 5,-2 1.07497,-0.53748 1.88411,-1.55364 3,-2 0.61898,-0.24759 1.40372,0.29815 2,0 0.29814,-0.14907 0.33333,-1 0,-1 -0.4714,0 -0.60777,0.73851 -1,1 -0.62017,0.41345 -1.33333,0.66667 -2,1 -0.66667,0.66667 -1.26379,1.41103 -2,2 -1.87698,1.50158 -4,2.66667 -6,4 -1,0.66667 -2.15016,1.15017 -3,2 -0.52705,0.52705 -0.66667,1.33334 -1,2 -0.43225,0.86449 -1.50545,2.49456 -1,3 0.50545,0.50545 2.13551,-0.56775 3,-1 1.33333,-0.66666 2.72173,-1.23303 4,-2 1.03058,-0.61834 1.96942,-1.38165 3,-2 0.63914,-0.38348 1.36086,-0.61651 2,-1 1.03058,-0.61834 1.96942,-1.38165 3,-2 0.90125,-1.98532 2.77073,-0.38536 4,-1 0.29814,-0.14907 -0.2357,-0.7643 0,-1 0.2357,-0.2357 1,-0.33333 1,0 0,0.47141 -0.73851,0.60777 -1,1 -0.41345,0.62018 -0.55279,1.40372 -1,2 -0.56569,0.75425 -1.33333,1.33334 -2,2 -0.66667,0.66667 -1.33333,1.33334 -2,2 -1,1 -2,2 -3,3 -0.66667,0.66667 -1.41103,1.26379 -2,2 -0.75079,0.93849 -1.27889,2.03852 -2,3 -0.27017,0.36022 -3,2.84007 -3,3 0,0.33334 0.7643,-0.2357 1,0 0.2357,0.2357 -0.2357,0.7643 0,1 0.2357,0.2357 0.66667,0 1,0 0.33333,0 0.66667,0 1,0 3.51184,0 0.79289,0.47141 3,-1 0.62017,-0.41345 1.33333,-0.66666 2,-1 2.30565,-1.15282 4.46875,-2.36718 7,-3 0.32338,-0.0808 0.66667,0 1,0 0.33333,0 1,-0.33333 1,0 0,0.76466 -2.99284,1.99463 -3,2 -0.75425,0.56569 -1.33333,1.33334 -2,2 -0.66667,0.66667 -1.43431,1.24576 -2,2 -0.44721,0.59629 -0.47295,1.47296 -1,2 -0.52705,0.52705 -1.47295,0.47296 -2,1 -0.52705,0.52705 -0.47295,1.47296 -1,2 -0.2357,0.2357 -0.7643,-0.2357 -1,0 -0.4714,0.47141 0.4714,1.5286 0,2 -0.2357,0.2357 -0.85093,0.29815 -1,0 -0.29814,-0.59628 -0.21082,-1.36754 0,-2 0.14907,-0.44721 0.66667,-0.66666 1,-1"
         style="opacity:0.5;fill:none;stroke:#d34132;stroke-width:11.44925213;stroke-linecap:round;stroke-linejoin:round;stroke-miterlimit:4;stroke-opacity:1;stroke-dasharray:none" />
      <path
         inkscape:connector-curvature="0"
         id="path3915"
         d="m 383,394.36218 c -1.8875,13.02376 -9.26995,28.76702 -4,41 10.86557,-1.15562 14.70472,-14.02339 16.08491,-23.27104 0.0399,-8.91457 0.92172,-19.14016 -6.08491,-22.72896 -5.46399,-1.68934 -3.20927,-1.14334 -6,5 z"
         style="fill:none;stroke:#000000;stroke-width:3.43477583;stroke-linecap:butt;stroke-linejoin:miter;stroke-miterlimit:4;stroke-opacity:1;stroke-dasharray:none" />
      <path
         inkscape:connector-curvature="0"
         id="path3917"
         d="m 411,389.36218 c -2.68833,11.17924 -7.04558,20.87073 -9,32 0.0366,5.87866 -2.72413,18.45386 6,16 7.14636,-7.43342 9.45881,-19.03606 10,-30 1.33412,-5.35277 -0.0164,-15.92877 -7,-18 z"
         style="fill:none;stroke:#000000;stroke-width:3.43477583;stroke-linecap:butt;stroke-linejoin:miter;stroke-miterlimit:4;stroke-opacity:1;stroke-dasharray:none" />
    </g>
    <g
       id="g4250"
       transform="matrix(0.63344905,0,0,0.63344905,-175.83055,7.154814)">
      <path
         inkscape:connector-curvature="0"
         id="path4099"
         d="m 510,195.80566 c -1,1.14783 -2.25464,2.16017 -3,3.44348 -0.29814,0.51333 0.16169,1.16496 0,1.72174 -0.18078,0.62249 -0.66667,1.14783 -1,1.72174 -0.33333,0.57391 -0.66667,1.14783 -1,1.72173 -2.34518,4.03779 0.4714,-1.01454 -2,4.30435 -0.27682,0.59577 -0.58655,1.18786 -1,1.72174 -1.2357,1.59568 -1,0.0789 -1,1.72174 0,0.28696 -0.33333,0.86087 0,0.86087 0.4714,0 0.60777,-0.63576 1,-0.86087 0.62017,-0.35593 1.47295,-0.40715 2,-0.86087 0.52705,-0.45371 0.61652,-1.17152 1,-1.72174 0.61835,-0.88719 1.23059,-1.78777 2,-2.58261 0.57337,-0.59231 5,-3.88278 5,-5.16521 0,-2.08908 -3.51595,-4.39479 -2,-6.02609 1.31697,-1.41717 3.89181,1.72174 6,1.72174 0.17556,0 4.42626,-3.81043 5,-4.30435 0.33333,-0.28695 0.5286,-0.86087 1,-0.86087 0.33333,0 0.1849,0.62211 0,0.86087 -3.42617,2.94949 -0.86754,0.38387 -3,3.44348 -1.23669,1.77439 -2.76331,3.39083 -4,5.16522 -0.76696,1.10043 -1.1731,2.3757 -2,3.44347 -0.26149,0.33766 -0.78918,0.49791 -1,0.86087 -0.14907,0.25667 -0.2357,0.65797 0,0.86087 0.44499,0.38308 2.34746,-0.43956 3,-0.86087 0.75425,-0.48697 1.26379,-1.21471 2,-1.72174 0.93849,-0.64633 2.07671,-1.05937 3,-1.72173 1.08643,-0.77939 1.92625,-1.7903 3,-2.58261 2.17065,-1.60169 4.62575,-2.94173 7,-4.30435 1,-0.57391 2.03852,-1.10096 3,-1.72174 0.22316,-0.14407 1.24457,-1.51119 2,-0.86087 0.76332,0.65712 -0.84379,1.52003 -1,1.72174 -0.41345,0.53389 -0.61652,1.17153 -1,1.72174 -3.69349,5.29936 -0.23194,0.24958 -4,4.30435 -1.60897,1.73139 -1.96144,2.51621 -3,4.30434 -0.33333,0.57392 -0.58655,1.18786 -1,1.72174 -3.31658,2.85516 0.4714,-0.81163 -1,1.72174 -0.21082,0.36298 -1,0.45506 -1,0.86087 0,0.28696 0.70186,0.12833 1,0 0.84327,-0.36297 1.21554,-1.27152 2,-1.72174 0.62017,-0.35592 1.40372,-0.47587 2,-0.86087 2.24,-1.44626 3.76,-3.71895 6,-5.16521 1.19257,-0.76998 2.75965,-1.00989 4,-1.72174 0.23431,-0.13448 1.23668,-1.51798 2,-0.86087 0.2357,0.2029 0,0.57391 0,0.86087 0,0.57391 0.16169,1.16496 0,1.72174 -0.67061,2.30923 -3.39157,3.43441 -5,5.16521 -5.04595,5.42989 0.82902,0.1472 -4,4.30435 -0.66667,0.57392 -1.33333,1.14783 -2,1.72174 -0.33333,0.28696 -0.78918,0.4979 -1,0.86087 -0.14907,0.25667 -0.33333,0.86087 0,0.86087 0.4714,0 0.57836,-0.67938 1,-0.86087 0.29814,-0.12833 0.72265,0.15918 1,0 1.56893,-0.90043 2.49151,-2.46952 4,-3.44348 2.92022,-1.88544 1.37563,0.42972 4,-2.58261 0.44721,-0.51332 0.37983,-1.36581 1,-1.72174 0.5547,-0.31835 1.40372,0.25667 2,0 0.29814,-0.12833 -0.33333,-0.86087 0,-0.86087 0.33333,0 0.14907,0.60421 0,0.86087 -0.21082,0.36298 -0.66667,0.57392 -1,0.86087 -0.66667,0.57392 -1.43431,1.07244 -2,1.72174 -0.44721,0.51333 -0.55279,1.20842 -1,1.72174 -0.56569,0.64931 -1.43431,1.07244 -2,1.72174 -3.63246,4.16943 1.05862,-0.0505 -2,2.58261 -0.19526,0.16809 -1.7357,1.0884 -1,1.72174 0.76332,0.65712 1.76569,-0.72639 2,-0.86087 0.62017,-0.35593 1.40372,-0.47587 2,-0.86087 0.75425,-0.48698 1.26379,-1.21471 2,-1.72174 0.93849,-0.64633 2.06151,-1.07541 3,-1.72174 0.73621,-0.50702 1.33333,-1.14782 2,-1.72174 1,-0.5739 2.03852,-1.10096 3,-1.72174 0.75425,-0.48697 1.15673,-1.35876 2,-1.72174 0.29814,-0.12833 1,-0.28695 1,0 0,0.0554 -2.75747,2.37383 -3,2.58261 -0.66667,0.57392 -1.33333,1.14783 -2,1.72174 -0.66667,0.57392 -1.43431,1.07244 -2,1.72174 -0.89443,1.02665 -1.1731,2.37571 -2,3.44348 -0.26149,0.33766 -0.78918,0.4979 -1,0.86087 -0.0262,0.045 -0.0262,2.53758 0,2.58261 0.32525,0.55998 1.17239,1.2171 2,0.86087 0.42164,-0.18149 0.55279,-0.73254 1,-0.86087 0.63246,-0.18149 1.35324,0.13919 2,0 1.80994,0.51887 1.85982,-1.39456 3,-1.72174 0.39052,-0.11206 3,0.48506 3,-0.86087 0,-0.28695 -0.66667,0 -1,0 -0.66667,0 -1.36754,-0.18149 -2,0 -0.12423,0.0356 -2.91422,2.43492 -3,2.58261 -0.14907,0.25667 0.14907,0.60421 0,0.86087 -0.21082,0.36297 -0.78918,0.4979 -1,0.86087 -0.14907,0.25667 0,0.57391 0,0.86087 0,1.57289 0.23984,0.86087 2,0.86087 0.33333,0 0.66667,0 1,0 0.33333,0 0.7643,0.2029 1,0 0.2357,-0.20291 0.2357,-1.06378 0,-0.86087 -0.52705,0.45372 -0.58655,1.18785 -1,1.72174 -0.26149,0.33765 -0.66667,0.57391 -1,0.86087 -0.66667,0.57391 -1.33333,1.14783 -2,1.72173 -0.66667,0.57392 -1.33333,1.14784 -2,1.72174 -0.33333,0.28697 -0.73851,0.52321 -1,0.86087 -0.41345,0.5339 -0.58655,1.18786 -1,1.72174 -0.26149,0.33766 -0.78918,0.4979 -1,0.86087 -0.29882,0.51448 0.18689,1.72174 1,1.72174 0.33333,0 -0.2357,-0.65796 0,-0.86087 0.4714,-0.40581 1.5286,0.40582 2,0 0.2357,-0.20291 -0.2357,-0.65796 0,-0.86087 0.2357,-0.20291 1,-0.28695 1,0 0,0.28696 -0.70186,-0.12833 -1,0 -0.53408,0.22989 -2.47354,2.1294 -3,2.58261 -0.66667,0.57392 -1.33333,1.14783 -2,1.72174 -0.33333,0.28696 -0.73851,0.52321 -1,0.86087 -0.41345,0.53389 -0.58655,1.18785 -1,1.72174 -0.26149,0.33766 -0.66667,0.57391 -1,0.86087 -0.33333,0.28696 -0.57836,0.67938 -1,0.86087 -0.29814,0.12833 -0.7643,-0.20291 -1,0 -0.2357,0.2029 0.2357,0.65796 0,0.86087 -0.2357,0.2029 -1,0.28696 -1,0 0,-0.28696 0.7643,0.2029 1,0 0.2357,-0.20291 -0.2357,-0.65797 0,-0.86087 0.2357,-0.20291 0.7643,0.2029 1,0 0.2357,-0.20291 -0.14907,-0.6042 0,-0.86087 0.21082,-0.36297 0.66667,-0.57391 1,-0.86087 0.33333,-0.28696 0.66667,-1.14783 1,-0.86087 1.45732,1.25456 -1.57097,0.73776 -2,0.86087 -1.81623,0.52118 -1.85585,0.73677 -3,1.72174 -0.66667,0.57391 -1.24575,1.23476 -2,1.72174 -1.19257,0.76998 -2.75965,1.00988 -4,1.72174 -0.78446,0.45021 -1.15673,1.35877 -2,1.72173 -0.29814,0.12833 -0.70186,-0.12833 -1,0 -0.42164,0.18149 -0.5286,0.86087 -1,0.86087 -0.33333,0 0,-0.5739 0,-0.86087 0,-0.28695 -0.14907,-0.6042 0,-0.86086 0.21082,-0.36297 0.85093,-0.47588 1,-0.86087 0.21082,-0.54446 -0.29814,-1.20842 0,-1.72174 0.14907,-0.25666 0.7643,0.2029 1,0 0.2357,-0.20291 -0.14907,-0.6042 0,-0.86087 0.21082,-0.36297 0.66667,-1.14783 1,-0.86087 0.33333,0.28696 -0.66667,0.57391 -1,0.86087 -2.29284,1.97383 0.42164,-0.54446 -2,2.58261 -0.26149,0.33765 -0.66667,0.57391 -1,0.86087 -0.33333,0.28696 -0.66667,0.57391 -1,0.86086 -0.33333,0.28697 -1,0.45506 -1,0.86087 0,0.28697 0.66667,0 1,0 0.66667,0 1.33333,0 2,0 0.33333,0 1,-0.28695 1,0 0,0.28697 -0.70186,-0.12833 -1,0 -0.42164,0.18149 -0.66667,0.57392 -1,0.86087 -0.33333,0.28697 -0.73851,0.52321 -1,0.86087 -0.41345,0.5339 -0.58655,1.18786 -1,1.72174 -0.26149,0.33766 -0.78918,0.4979 -1,0.86087 -0.14907,0.25667 0,0.57392 0,0.86087 0,0.28696 -0.2357,0.65796 0,0.86087 0.2357,0.20291 0.66667,0 1,0 1,0 2.05132,0.27223 3,0 0.44721,-0.12833 0.60777,-0.63576 1,-0.86087 0.62017,-0.35592 1.37983,-0.50494 2,-0.86087 0.39223,-0.22511 0.57836,-0.67938 1,-0.86087 0.29814,-0.12833 0.70186,0.12833 1,0 0.42164,-0.18149 0.57836,-0.67938 1,-0.86087 0.29814,-0.12833 1,-0.28695 1,0 0,0.28697 -0.70186,-0.12833 -1,0 -1.14642,0.49346 -1.39101,1.79622 -2,2.58261 -1.00269,1.29478 -3.19124,1.19014 -4,2.58261 -0.14907,0.25667 0,0.57392 0,0.86087 0,0.28696 -0.2357,0.65796 0,0.86087 0.23942,0.20611 4,-0.19569 4,0 0,0.28696 -0.7643,-0.20291 -1,0 -0.4714,0.40582 0.4714,1.31592 0,1.72174 -0.2357,0.20291 -0.7643,-0.20291 -1,0 -0.59763,0.51448 0.60948,1.72174 1,1.72174 0.4714,0 0.57836,-0.67938 1,-0.86087 0.29814,-0.12833 0.70186,0.12833 1,0 0.84327,-0.36297 1.15673,-1.35876 2,-1.72174 0.29814,-0.12833 1,-0.28695 1,0 0,0.28696 -0.68377,-0.0908 -1,0 -0.70711,0.20291 -1.47295,0.40716 -2,0.86087 -0.52705,0.45372 -0.47295,1.26803 -1,1.72174 -0.52705,0.45372 -1.40372,0.47588 -2,0.86087 -0.0274,0.0177 -3.75901,3.02855 -4,3.44348 -0.14907,0.25666 0,0.57391 0,0.86087 0,2.19363 1.16643,1.14741 2,2.5826 0.14907,0.25667 -0.14907,0.60421 0,0.86087 0.21082,0.36298 0.78918,0.4979 1,0.86087 0.14907,0.25667 0,0.57392 0,0.86087 0,0.28697 0.14907,0.60421 0,0.86087 -0.21082,0.36298 -0.78918,0.4979 -1,0.86087 -0.29814,0.51333 0.29814,1.20842 0,1.72174 -0.21082,0.36298 -0.85093,0.47588 -1,0.86087 -0.21082,0.54447 0,1.14783 0,1.72174 0,0.28696 0.14907,0.60421 0,0.86087 -2.2883,3.93986 0.41447,-3.65302 -2,2.58261 -0.10541,0.27223 0.14907,0.60421 0,0.86087 -2.08088,3.58273 0.069,-0.9203 -2,0.86087 -0.2357,0.2029 0.2357,0.65796 0,0.86087 -0.2357,0.2029 -1,0.28696 -1,0 0,-0.28696 0.7643,0.2029 1,0 0.2357,-0.20291 -0.2357,-0.65797 0,-0.86087 0.2357,-0.20291 0.7643,0.2029 1,0 0.2357,-0.20291 -0.33333,-0.86087 0,-0.86087 0.33333,0 0.14907,0.60421 0,0.86087 -0.44317,0.76302 -2.39312,1.79895 -3,2.58261 -0.41345,0.53389 -0.58655,1.18785 -1,1.72174 -0.26149,0.33765 -0.78918,0.4979 -1,0.86086 -0.14907,0.25667 0.2357,0.65797 0,0.86087 -0.2357,0.20291 -0.7643,-0.2029 -1,0 -0.2357,0.20291 0,1.14784 0,0.86087 0,-5.71028 -0.4714,1.21746 1,-2.5826 0.79213,-2.04577 -1.18377,-1.56354 1,-3.44348 0.52705,-0.45372 1.47295,-0.40715 2,-0.86087 0.0641,-0.0552 1.87582,-3.28313 2,-3.44348 0.52298,-0.67532 1.33333,-1.14782 2,-1.72174 0.33333,-0.28695 0.5286,-0.86087 1,-0.86087 0.33333,0 0.2357,0.65796 0,0.86087 -0.52705,0.45372 -1.33333,0.57392 -2,0.86087 -0.33333,0.57392 -0.53438,1.2207 -1,1.72174 -0.88345,0.95067 -2,1.72174 -3,2.58261 -2.33333,2.0087 -4.66667,4.01739 -7,6.02608 -0.33333,0.28697 -1,0.45506 -1,0.86087 0,0.40583 0.5286,0.86087 1,0.86087 0.33333,0 -0.2357,-0.65796 0,-0.86087 0.2357,-0.2029 0.70186,0.12833 1,0 0.42164,-0.18148 0.60777,-0.63576 1,-0.86087 1.45728,-0.83635 2.08287,-0.53744 3,-1.72173 0.41345,-0.53389 0.58655,-1.18785 1,-1.72174 0.27724,-0.35801 3.64234,-3.28953 4,-3.44348 0.29814,-0.12833 1,-0.28696 1,0 0,0.40582 -0.78918,0.4979 -1,0.86087 -0.10256,0.17659 -0.14103,2.46121 0,2.58261 0.2357,0.2029 0.66667,0 1,0 0.33333,0 0.70186,0.12833 1,0 0.42164,-0.18149 0.57836,-0.67939 1,-0.86087 0.29814,-0.12833 0.68377,0.0907 1,0 1.81623,-0.52118 1.85585,-0.73678 3,-1.72174 0.33333,-0.28696 0.57836,-0.67938 1,-0.86087 0.29814,-0.12833 0.7643,0.2029 1,0 0.2357,-0.20291 0.33333,-0.86087 0,-0.86087 -0.4714,0 -0.66667,0.57391 -1,0.86087 -0.33333,0.28696 -0.73851,0.52321 -1,0.86087 -0.41345,0.53389 -0.55279,1.20842 -1,1.72174 -4.32529,3.72351 -0.15673,-0.22806 -3,3.44347 -1.2357,1.59568 -1,0.0789 -1,1.72174 0,0.28697 -0.33333,0.86087 0,0.86087 0.4714,0 0.57836,-0.67938 1,-0.86087 0.29814,-0.12833 0.66667,0 1,0 0.66667,-0.28695 1.40372,-0.47587 2,-0.86087 1.13137,-0.73047 2,-1.72173 3,-2.5826 0.33333,-0.28696 0.66667,-0.57391 1,-0.86087 0.33333,-0.28696 0.66667,-1.14783 1,-0.86087 0.33333,0.28696 -0.57836,0.67938 -1,0.86087 -0.29814,0.12833 -0.7643,-0.20291 -1,0 -0.2357,0.2029 0.10541,0.58863 0,0.86087 -0.2357,0.60872 -0.47295,1.26802 -1,1.72173 -0.2357,0.20291 -0.7643,-0.2029 -1,0 -0.4714,0.40583 0.66667,1.72174 0,1.72174 -0.33333,0 -0.2357,-0.65796 0,-0.86087 0.20444,-0.17598 2.60351,0.17067 3,0 0.84327,-0.36296 1.15673,-1.35876 2,-1.72173 0.29814,-0.12833 0.70186,0.12832 1,0 0.42164,-0.18149 0.57836,-0.67939 1,-0.86087 0.29814,-0.12833 1,-0.28696 1,0 0,0.40582 -0.78918,0.4979 -1,0.86087 -0.4,0.68869 0.4,1.89391 0,2.5826 -0.21082,0.36298 -0.78918,0.4979 -1,0.86087 -0.14907,0.25667 0.14907,0.60421 0,0.86087 -0.42164,0.72596 -1.57836,0.9958 -2,1.72174 -0.14907,0.25667 0.33333,0.86087 0,0.86087 -0.33333,0 -0.2357,-0.65796 0,-0.86087 0.2357,-0.2029 0.70186,0.12833 1,0 0.42164,-0.18149 0.57836,-0.67938 1,-0.86087 0.29814,-0.12833 0.7643,0.20291 1,0 0.2357,-0.2029 -0.2357,-0.65796 0,-0.86087 0.2357,-0.2029 0.7643,0.20291 1,0 0.2357,-0.2029 -0.2357,-0.65796 0,-0.86087 0.2357,-0.2029 0.66667,0 1,0 0.33333,0 0.66667,0 1,0"
         style="opacity:0.5;fill:none;stroke:#c7659b;stroke-width:15.78658962;stroke-linecap:round;stroke-linejoin:round;stroke-miterlimit:4;stroke-opacity:1;stroke-dasharray:none" />
      <path
         inkscape:connector-curvature="0"
         id="path3923"
         d="m 534,194.62633 c -11.08109,-1.20738 -25.22063,-2.22689 -32,4.93288 -6.49177,5.61292 3.81172,16.18327 12,13.15434 6.72758,-0.11646 13.15143,-4.44854 19,-1.64429 7.01875,3.32593 10.50771,16.35765 3,19.7315 -7.07831,3.97019 -18.94607,2.29174 -22,9.04361 -1.17095,7.11797 1.63351,15.66626 7,20.55365 6.28754,1.43552 8.78334,-6.78979 9,-11.81628 -1.47325,-6.99058 3.36441,-7.92024 9,-9.55952 9.62323,-4.9744 11.3677,-11.01216 13,-19.7315 0.48358,-7.12184 -2.73235,-14.12777 -4,-19.73151 -2.29054,-8.51817 -9.08847,-8.28429 -17.00043,-5.75662 -1.00774,1.10326 -2.26173,-4.78846 -1.99957,-1.64269"
         style="fill:none;stroke:#000000;stroke-width:4.7359767;stroke-linecap:round;stroke-linejoin:round;stroke-miterlimit:4;stroke-opacity:1;stroke-dasharray:none" />
      <path
         inkscape:connector-curvature="0"
         id="path3925"
         d="m 518,278.36218 c -9.2672,-3.53799 6.73451,0.5925 -6,-1 -14.13094,8.82114 5.20039,18.09027 15,12 13.61944,-2.34938 -1.03262,-19.85303 -9,-11 z"
         style="fill:none;stroke:#000000;stroke-width:4.7359767;stroke-linecap:butt;stroke-linejoin:miter;stroke-miterlimit:4;stroke-opacity:1;stroke-dasharray:none" />
    </g>
    <g
       id="g4269"
       transform="matrix(0.82056949,0,0,0.82056949,-179.96905,-266.9597)">
      <path
         inkscape:connector-curvature="0"
         id="path4107"
         d="m 509,395.36218 c -1.51517,3.12579 -5.0212,1.0212 -7,3 -0.52705,0.52705 -0.58655,1.37983 -1,2 -0.26149,0.39223 -0.66667,0.66667 -1,1 -1,1 -2,2 -3,3 -1.62792,1.62793 -2.28918,1.86755 -3,4 -0.10541,0.31623 0.14907,0.70186 0,1 -0.21082,0.42164 -0.78918,0.57837 -1,1 -0.14907,0.29815 0,0.66667 0,1 0,1.03452 -0.2357,1.38215 1,2 0.85052,0.42526 2.70276,-0.80184 3,-1 0.39223,-0.26149 0.60777,-0.73851 1,-1 0.62017,-0.41345 1.37983,-0.58655 2,-1 0.39223,-0.26149 0.60777,-0.73851 1,-1 0.50359,-2.20316 2.05719,-0.52859 3,-1 0.57137,-0.28568 2.02627,-2.97373 3,-2 0.2357,0.2357 0,0.66667 0,1 0,0.33334 0,0.66667 0,1 0,0.45239 -0.13325,5.7335 0,6 0.26704,0.53409 2.47354,2.47354 3,3 0.52646,0.52647 2.46592,2.73296 3,3 0.29814,0.14907 0.7643,-0.2357 1,0 0.2357,0.2357 -0.14907,0.70186 0,1 0.42164,0.84328 1.57836,1.15673 2,2 0.14907,0.29815 -0.10541,0.68377 0,1 2.41447,7.24342 -0.2883,-1.5766 2,3 0.15217,0.30434 0,2.54964 0,3"
         style="opacity:0.5;fill:none;stroke:#636fd7;stroke-width:12.18665886;stroke-linecap:round;stroke-linejoin:round;stroke-miterlimit:4;stroke-opacity:1;stroke-dasharray:none" />
      <path
         inkscape:connector-curvature="0"
         id="path4105"
         d="m 542,413.36218 c -3,0 -6,0 -9,0 -0.33333,0 -0.7643,-0.2357 -1,0 -0.7357,0.7357 0.80474,1.80474 1,2 0.33333,0.33334 0.57836,0.78918 1,1 0.29814,0.14907 0.7643,-0.2357 1,0 0.2357,0.2357 -0.2357,0.7643 0,1 0.2357,0.2357 0.70186,-0.14907 1,0 0.42164,0.21082 0.57836,0.78918 1,1 0.18349,0.0918 3,-0.0734 3,0 0,0.47141 -0.66667,0.66667 -1,1 -0.33333,0.33334 -0.57836,0.78918 -1,1 -0.29814,0.14907 -0.70186,-0.14907 -1,0 -0.42164,0.21082 -0.57836,0.78918 -1,1 -0.29814,0.14907 -0.7643,-0.2357 -1,0 -0.2357,0.2357 0.2357,0.7643 0,1 -0.2357,0.2357 -0.70186,-0.14907 -1,0 -0.84327,0.42164 -1.15673,1.57837 -2,2 -0.29814,0.14907 -0.7643,-0.2357 -1,0 -0.2357,0.2357 -0.2357,0.7643 0,1 0.2357,0.2357 0.7643,-0.2357 1,0 0.2357,0.2357 -0.2357,0.7643 0,1 0.2357,0.2357 0.7643,-0.2357 1,0 0.2357,0.2357 0,0.66667 0,1 0,0.33334 0.2357,0.7643 0,1 -0.10301,0.10302 -4.75071,-0.0831 -5,0 -3.70711,1.2357 1.21895,1 -2,1 -0.33333,0 -0.66667,0 -1,0 -0.33333,0 -1,-0.33333 -1,0 0,1.65829 1.40237,0.70119 2,1 0.42164,0.21082 0.57836,0.78918 1,1 0.30433,0.15217 2.54964,0 3,0"
         style="opacity:0.5;fill:none;stroke:#a2a2a2;stroke-width:12.18665886;stroke-linecap:round;stroke-linejoin:round;stroke-miterlimit:4;stroke-opacity:1;stroke-dasharray:none" />
      <path
         inkscape:connector-curvature="0"
         id="path4103"
         d="m 568,372.36218 c -1.33333,-1 -5,-1.66666 -4,-3 1,-1.33333 5.17851,4.17851 4,3 -1.66667,-1.33333 -3.33333,-2.66666 -5,-4 -0.33333,0 -0.70186,0.14907 -1,0 -0.42164,-0.21082 -0.57836,-0.78918 -1,-1 -0.59628,-0.29814 -1.40372,0.29815 -2,0 -0.42164,-0.21082 -0.5286,-1 -1,-1 -0.33333,0 -0.14907,0.70186 0,1 0.21082,0.42164 0.78918,0.57837 1,1 0.14907,0.29815 -0.14907,0.70186 0,1 0.44317,0.88634 2.39312,2.08969 3,3 0.41345,0.62018 0.66667,1.33334 1,2 1.66667,-0.66666 3.7307,-3.26929 5,-2 1.2693,1.2693 -1.70489,3.22937 -2,5 -0.0775,0.46499 0.66667,0.66667 1,1 0.33333,0.33334 0.60777,0.73851 1,1 0.62017,0.41345 1.47295,0.47296 2,1 0.2357,0.2357 -0.14907,0.70186 0,1 0.83357,1.66715 2,0.45184 2,3 0,0.33334 0.2357,0.7643 0,1 -0.78173,0.78173 -1.73965,-0.86982 -2,-1 -0.29814,-0.14907 -0.66667,0 -1,0 -3.51184,0 -0.79289,0.47141 -3,-1 -0.62017,-0.41345 -1.33333,-0.66666 -2,-1 -1.33333,-0.66666 -2.66667,-1.33333 -4,-2 -0.66667,-0.33333 -1.37983,-0.58655 -2,-1 -0.39223,-0.26149 -0.60777,-0.73851 -1,-1 -0.62017,-0.41345 -1.37983,-0.58655 -2,-1 -0.39223,-0.26149 -0.57836,-0.78918 -1,-1 -0.29814,-0.14907 -0.66667,0 -1,0 -0.33333,0 -1,-0.33333 -1,0 0,0.47141 0.78918,0.57837 1,1 0.14907,0.29815 -0.14907,0.70186 0,1 0.21082,0.42164 0.73851,0.60777 1,1 0.41345,0.62018 0.58655,1.37983 1,2 0.52298,0.78447 1.47702,1.21554 2,2 0.41345,0.62018 0.58655,1.37983 1,2 0.91713,1.3757 1.54272,1.02848 3,2 0.39223,0.26149 0.66667,0.66667 1,1 0.33333,0.33334 1,0.5286 1,1 0,0.33334 -0.70186,0.14907 -1,0 -0.42164,-0.21082 -0.57836,-0.78918 -1,-1 -0.29814,-0.14907 -0.68377,0.10541 -1,0 -0.70711,-0.2357 -1.33333,-0.66666 -2,-1 -1.33333,-0.66666 -2.66667,-1.33333 -4,-2 -0.66667,-0.33333 -1.29289,-0.7643 -2,-1 -0.31623,-0.10541 -0.68377,0.10541 -1,0 -0.70711,-0.2357 -1.2769,-0.81922 -2,-1 -0.64676,-0.16169 -1.36754,0.21082 -2,0 -1.14286,-0.38095 -0.85714,-2.28571 -2,0 -0.14907,0.29815 0,0.66667 0,1 0,1 -0.31623,2.05132 0,3 0.14907,0.44722 0.73851,0.60777 1,1 0.97152,1.45728 0.6243,2.08287 2,3 0.62017,0.41345 1.47295,0.47296 2,1 0.52705,0.52705 0.47295,1.47296 1,2 0.2357,0.2357 0.70186,-0.14907 1,0 0.42164,0.21082 0.57836,0.78918 1,1 0.29814,0.14907 0.7643,-0.2357 1,0 0.2357,0.2357 0.33333,1 0,1 -0.4714,0 -0.57836,-0.78918 -1,-1 -0.29814,-0.14907 -0.66667,0 -1,0 -0.66667,0 -1.36754,0.21082 -2,0 -0.44721,-0.14907 -0.57836,-0.78918 -1,-1 -0.29814,-0.14907 -0.70186,0.14907 -1,0 -0.42164,-0.21082 -0.57836,-0.78918 -1,-1 -0.18349,-0.0917 -3,0.0734 -3,0 0,-0.33333 0.7643,-0.2357 1,0 0.2357,0.2357 -0.14907,0.70186 0,1 0.42164,0.84328 1.57836,1.15673 2,2 0.14907,0.29815 -0.2357,0.7643 0,1 0.2357,0.2357 0.7643,-0.2357 1,0 0.1,0.1 0.1,2.9 0,3 -0.2357,0.2357 -0.66667,0 -1,0 -2,0 -4,0 -6,0 -0.33333,0 -0.7643,-0.2357 -1,0 -0.78173,0.78173 0.86983,1.73965 1,2 0.14907,0.29815 -0.2357,0.7643 0,1 2.06904,2.06904 -0.0809,-3.16176 2,1 0.14907,0.29815 -0.2357,0.7643 0,1 0.2357,0.2357 0.70186,-0.14907 1,0 0.42164,0.21082 0.57836,0.78918 1,1 0.29814,0.14907 0.7643,-0.2357 1,0 0.2357,0.2357 -0.2357,0.7643 0,1 1.33333,1.33334 1,-1.66666 1,1"
         style="opacity:0.5;fill:none;stroke:#8b7b49;stroke-width:12.18665886;stroke-linecap:round;stroke-linejoin:round;stroke-miterlimit:4;stroke-opacity:1;stroke-dasharray:none" />
      <path
         inkscape:connector-curvature="0"
         id="path3947"
         d="m 543.47233,409.56065 c 0.1301,-0.25778 -4.26358,-3.83656 -7.60328,-1.21291 -4.31184,1.06321 -6.16853,6.74626 -4.17937,10.48673 -0.25107,6.91135 -7.98564,6.5008 -12.46722,8.32815 1.73495,2.28777 8.46037,2.97495 12.04607,3.03728 5.28639,-0.13296 9.45964,-3.408 9.25202,-9.12009 2.39815,-3.75875 6.05245,-7.41698 4.4832,-12.39018 l -1.53125,0.87105 -1.7e-4,-3e-5 z"
         style="fill:none;stroke:#000000;stroke-width:3.65599751;stroke-linecap:butt;stroke-linejoin:miter;stroke-miterlimit:4;stroke-opacity:1;stroke-dasharray:none" />
      <path
         inkscape:connector-curvature="0"
         id="path3949"
         d="m 568,371.36218 c -8.49771,0.21376 5.65161,-1.43354 -6.1705,1.89017 -4.46432,5.76927 -16.39334,15.27659 -17.8295,22.10983 -7.77842,6.7583 -2.54295,24.03581 7,9 2.70027,-5.65951 8.94339,-12.05758 10,-18 3.74114,-5.61549 8.22877,-7.36124 7,-15 z"
         style="fill:none;stroke:#000000;stroke-width:3.65599751;stroke-linecap:butt;stroke-linejoin:miter;stroke-miterlimit:4;stroke-opacity:1;stroke-dasharray:none" />
      <path
         inkscape:connector-curvature="0"
         id="path3955"
         d="m 504,400.36218 c -10.13605,10.93296 1.29932,11.57139 6,18 0.70677,3.52148 5.7104,2.9397 6,6"
         style="fill:none;stroke:#000000;stroke-width:3.65599751;stroke-linecap:butt;stroke-linejoin:miter;stroke-miterlimit:4;stroke-opacity:1;stroke-dasharray:none" />
    </g>
    <g
       id="g4277"
       transform="translate(-252.51884,-247.40646)">
      <path
         inkscape:connector-curvature="0"
         id="path4111"
         d="m 508.83099,494.32388 c -1.96576,1.15775 -2.81361,1.23798 -4.05076,3.18097 -0.30192,0.4742 -0.36077,1.12764 -0.67512,1.59049 -0.99407,1.46367 -2.38157,2.51256 -3.37564,3.97622 -1.01375,1.49266 -1.68675,3.27882 -2.7005,4.77147 -0.39763,0.58547 -0.96834,0.99068 -1.35026,1.59049 -0.30192,0.47419 -0.3732,1.1163 -0.67512,1.59049 -0.38192,0.59981 -0.99718,0.96665 -1.35026,1.59049 -0.12483,0.22056 0.10064,0.55815 0,0.79524 -0.14233,0.33531 -0.45008,1.06033 -0.67512,0.79524 -0.22504,-0.26508 0.45008,-0.53015 0.67512,-0.79524 0.45009,-0.53016 0.90017,-1.06032 1.35026,-1.59049 1.54795,-1.82336 -0.42699,0.33531 2.02538,-1.59049 0.2648,-0.20795 0.45008,-0.53016 0.67512,-0.79524 0.45009,-0.53016 0.90017,-1.06033 1.35026,-1.59049 0.45008,-0.53016 0.84104,-1.14063 1.35025,-1.59049 0.40256,-0.35564 0.90017,-0.53016 1.35025,-0.79524 0.67513,-0.53016 1.39178,-0.99343 2.02538,-1.59049 0.49704,-0.46838 0.85322,-1.12212 1.35026,-1.59049 0.6336,-0.59706 1.35025,-1.06032 2.02538,-1.59049 0.67512,-0.53016 1.3296,-1.09875 2.02538,-1.59049 0.4315,-0.30496 0.88303,-0.5751 1.35025,-0.79524 0.66075,-0.31132 1.41515,-0.36396 2.02538,-0.79525 0.54581,-0.38575 0.82064,-1.17459 1.35025,-1.59049 0.18725,-0.14704 0.47385,0.11855 0.67513,0 0.56931,-0.33529 0.78094,-1.25518 1.35025,-1.59048 0.20129,-0.11855 0.67513,-0.26508 0.67513,0 0,0.26508 -0.47384,-0.11855 -0.67513,0 -0.28466,0.16765 -0.49858,0.48332 -0.67512,0.79524 -0.55827,0.98638 -0.7464,2.23259 -1.35026,3.18098 -1.88385,2.9587 -1.04835,0.084 -2.7005,3.97622 -2.79515,6.5849 1.84425,-2.06571 -2.02538,4.77147 -2.27617,4.0217 -0.62781,0.6559 -2.02538,4.77146 -0.18689,0.55035 -0.396,1.0973 -0.67513,1.59049 -0.10546,0.18634 -1.19046,0.98347 -0.67513,1.59049 0.88187,1.03877 1.95853,-2.28074 2.02538,-2.38573 0.38192,-0.59981 0.90017,-1.06033 1.35026,-1.59049 0.90016,-1.06033 1.70643,-2.24423 2.7005,-3.18098 0.6336,-0.59706 1.39178,-0.99343 2.02538,-1.59049 1.04109,0.20373 1.59132,-2.66968 2.02538,-3.18098 0.35583,-0.41912 0.93156,-0.46645 1.35026,-0.79524 0.2648,-0.20795 0.45008,-1.06032 0.67512,-0.79525 0.22504,0.26509 -0.53279,0.45995 -0.67512,0.79525 -0.10064,0.2371 0,0.53016 0,0.79524 -0.45009,0.53017 -0.95263,1.00503 -1.35026,1.59049 -1.99072,2.93115 -0.76328,1.49849 -2.02538,3.97622 -1.51441,2.9731 -3.40614,5.6386 -4.72588,8.74769 -0.29183,0.68748 -1.01637,1.98379 -0.67513,2.38573 0.15913,0.18744 0.45009,0 0.67513,0 0.22504,0 0.47384,0.11855 0.67512,0 0.28466,-0.16765 0.41033,-0.58729 0.67513,-0.79524 0.41869,-0.32879 0.99443,-0.37611 1.35025,-0.79524 0.35583,-0.41913 0.3193,-1.17136 0.67513,-1.59049 0.57375,-0.67583 1.39178,-0.99343 2.02538,-1.59049 0.49704,-0.46838 0.85322,-1.12212 1.35025,-1.59049 1.2672,-1.19412 2.78356,-1.98685 4.05076,-3.18098 0.49704,-0.46837 0.84104,-1.14062 1.35026,-1.59049 0.40256,-0.35564 0.93156,-0.46645 1.35025,-0.79524 0.15819,-0.12423 0.83492,-1.40226 1.35025,-0.79524 0.15913,0.18743 0,0.53016 0,0.79524 0,0.68915 0.13036,2.72032 0,3.18098 -0.15912,0.56232 -0.55307,1.01544 -0.67512,1.59049 -0.10916,0.51433 0.10916,1.07615 0,1.59048 -0.12205,0.57504 -0.516,1.02818 -0.67513,1.59049 -0.0712,0.25148 0.0712,0.54377 0,0.79525 -0.15913,0.56232 -0.516,1.02817 -0.67513,1.59049 -0.14233,0.50296 0.20129,1.1163 0,1.59048 -0.83425,1.96538 -0.67512,-0.2745 -0.67512,1.59049"
         style="opacity:0.5;fill:none;stroke:#ca90ec;stroke-width:10;stroke-linecap:round;stroke-linejoin:round;stroke-miterlimit:4;stroke-opacity:1;stroke-dasharray:none" />
      <path
         inkscape:connector-curvature="0"
         id="path3963"
         d="m 501.07773,498.19974 c -2.59825,4.73438 -2.75763,13.33577 -3.58946,20.81179 -2.68416,6.49514 2.20361,3.77239 7.17892,4.22409 5.01609,-1.2517 11.08099,0.44042 15.55432,-1.74669 l 0,-0.58223 -0.59824,0"
         style="fill:none;stroke:#000000;stroke-width:3;stroke-linecap:butt;stroke-linejoin:miter;stroke-miterlimit:4;stroke-opacity:1;stroke-dasharray:none" />
      <path
         inkscape:connector-curvature="0"
         id="path3965"
         d="m 504.66719,497.61751 c 5.46825,-0.53424 10.29804,0.0368 16.75081,0 10.8001,-3.7732 6.11503,9.02344 4.78594,14.55575 -0.11174,2.70944 -1.35719,8.7256 -1.19649,9.8979"
         style="fill:none;stroke:#000000;stroke-width:3;stroke-linecap:butt;stroke-linejoin:miter;stroke-miterlimit:4;stroke-opacity:1;stroke-dasharray:none" />
    </g>
    <g
       id="g4282"
       transform="translate(-221.51884,-248.40646)">
      <path
         style="opacity:0.5;fill:none;stroke:#90b8ec;stroke-width:10;stroke-linecap:round;stroke-linejoin:round;stroke-miterlimit:4;stroke-opacity:1;stroke-dasharray:none"
         d="m 577.83099,495.32388 c -1.96576,1.15775 -2.81361,1.23798 -4.05076,3.18097 -0.30192,0.4742 -0.36077,1.12764 -0.67512,1.59049 -0.99407,1.46367 -2.38157,2.51256 -3.37564,3.97622 -1.01375,1.49266 -1.68675,3.27882 -2.7005,4.77147 -0.39763,0.58547 -0.96834,0.99068 -1.35026,1.59049 -0.30192,0.47419 -0.3732,1.1163 -0.67512,1.59049 -0.38192,0.59981 -0.99718,0.96665 -1.35026,1.59049 -0.12483,0.22056 0.10064,0.55815 0,0.79524 -0.14233,0.33531 -0.45008,1.06033 -0.67512,0.79524 -0.22504,-0.26508 0.45008,-0.53015 0.67512,-0.79524 0.45009,-0.53016 0.90017,-1.06032 1.35026,-1.59049 1.54795,-1.82336 -0.42699,0.33531 2.02538,-1.59049 0.2648,-0.20795 0.45008,-0.53016 0.67512,-0.79524 0.45009,-0.53016 0.90017,-1.06033 1.35026,-1.59049 0.45008,-0.53016 0.84104,-1.14063 1.35025,-1.59049 0.40256,-0.35564 0.90017,-0.53016 1.35025,-0.79524 0.67513,-0.53016 1.39178,-0.99343 2.02538,-1.59049 0.49704,-0.46838 0.85322,-1.12212 1.35026,-1.59049 0.6336,-0.59706 1.35025,-1.06032 2.02538,-1.59049 0.67512,-0.53016 1.3296,-1.09875 2.02538,-1.59049 0.4315,-0.30496 0.88303,-0.5751 1.35025,-0.79524 0.66075,-0.31132 1.41515,-0.36396 2.02538,-0.79525 0.54581,-0.38575 0.82064,-1.17459 1.35025,-1.59049 0.18725,-0.14704 0.47385,0.11855 0.67513,0 0.56931,-0.33529 0.78094,-1.25518 1.35025,-1.59048 0.20129,-0.11855 0.67513,-0.26508 0.67513,0 0,0.26508 -0.47384,-0.11855 -0.67513,0 -0.28466,0.16765 -0.49858,0.48332 -0.67512,0.79524 -0.55827,0.98638 -0.7464,2.23259 -1.35026,3.18098 -1.88385,2.9587 -1.04835,0.084 -2.7005,3.97622 -2.79515,6.5849 1.84425,-2.06571 -2.02538,4.77147 -2.27617,4.0217 -0.62781,0.6559 -2.02538,4.77146 -0.18689,0.55035 -0.396,1.0973 -0.67513,1.59049 -0.10546,0.18634 -1.19046,0.98347 -0.67513,1.59049 0.88187,1.03877 1.95853,-2.28074 2.02538,-2.38573 0.38192,-0.59981 0.90017,-1.06033 1.35026,-1.59049 0.90016,-1.06033 1.70643,-2.24423 2.7005,-3.18098 0.6336,-0.59706 1.39178,-0.99343 2.02538,-1.59049 1.04109,0.20373 1.59132,-2.66968 2.02538,-3.18098 0.35583,-0.41912 0.93156,-0.46645 1.35026,-0.79524 0.2648,-0.20795 0.45008,-1.06032 0.67512,-0.79525 0.22504,0.26509 -0.53279,0.45995 -0.67512,0.79525 -0.10064,0.2371 0,0.53016 0,0.79524 -0.45009,0.53017 -0.95263,1.00503 -1.35026,1.59049 -1.99072,2.93115 -0.76328,1.49849 -2.02538,3.97622 -1.51441,2.9731 -3.40614,5.6386 -4.72588,8.74769 -0.29183,0.68748 -1.01637,1.98379 -0.67513,2.38573 0.15913,0.18744 0.45009,0 0.67513,0 0.22504,0 0.47384,0.11855 0.67512,0 0.28466,-0.16765 0.41033,-0.58729 0.67513,-0.79524 0.41869,-0.32879 0.99443,-0.37611 1.35025,-0.79524 0.35583,-0.41913 0.3193,-1.17136 0.67513,-1.59049 0.57375,-0.67583 1.39178,-0.99343 2.02538,-1.59049 0.49704,-0.46838 0.85322,-1.12212 1.35025,-1.59049 1.2672,-1.19412 2.78356,-1.98685 4.05076,-3.18098 0.49704,-0.46837 0.84104,-1.14062 1.35026,-1.59049 0.40256,-0.35564 0.93156,-0.46645 1.35025,-0.79524 0.15819,-0.12423 0.83492,-1.40226 1.35025,-0.79524 0.15913,0.18743 0,0.53016 0,0.79524 0,0.68915 0.13036,2.72032 0,3.18098 -0.15912,0.56232 -0.55307,1.01544 -0.67512,1.59049 -0.10916,0.51433 0.10916,1.07615 0,1.59048 -0.12205,0.57504 -0.516,1.02818 -0.67513,1.59049 -0.0712,0.25148 0.0712,0.54377 0,0.79525 -0.15913,0.56232 -0.516,1.02817 -0.67513,1.59049 -0.14233,0.50296 0.20129,1.1163 0,1.59048 -0.83425,1.96538 -0.67512,-0.2745 -0.67512,1.59049"
         id="path4113"
         inkscape:connector-curvature="0" />
      <path
         style="fill:none;stroke:#000000;stroke-width:3;stroke-linecap:butt;stroke-linejoin:miter;stroke-miterlimit:4;stroke-opacity:1;stroke-dasharray:none"
         d="m 570.07773,499.19974 c -2.59825,4.73438 -2.75763,13.33577 -3.58946,20.81179 -2.68416,6.49514 2.20361,3.77239 7.17892,4.22409 5.01609,-1.2517 11.08099,0.44042 15.55432,-1.74669 l 0,-0.58223 -0.59824,0"
         id="path4115"
         inkscape:connector-curvature="0" />
      <path
         style="fill:none;stroke:#000000;stroke-width:3;stroke-linecap:butt;stroke-linejoin:miter;stroke-miterlimit:4;stroke-opacity:1;stroke-dasharray:none"
         d="m 573.66719,498.61751 c 5.46825,-0.53424 10.29804,0.0368 16.75081,0 10.8001,-3.7732 6.11503,9.02344 4.78594,14.55575 -0.11174,2.70944 -1.35719,8.7256 -1.19649,9.8979"
         id="path4117"
         inkscape:connector-curvature="0" />
      <path
         inkscape:connector-curvature="0"
         id="path3983"
         d="m 570.51785,513.42657 c 2.31361,1.9108 4.35179,8.5821 4.41442,5.76373 5.01111,-2.94788 9.41841,-8.80969 12.93464,-13.91495 0.83213,-0.83178 4.48775,-3.85635 2.39297,-1.16446"
         style="fill:none;stroke:#000000;stroke-width:3;stroke-linecap:butt;stroke-linejoin:miter;stroke-miterlimit:4;stroke-opacity:1;stroke-dasharray:none" />
    </g>
    <g
       id="g4294"
       transform="translate(-131.91235,-452.32912)">
      <path
         inkscape:connector-curvature="0"
         id="path4133"
         d="m 381.09202,588.63465 c -0.91415,0.89107 -1.82831,1.78213 -2.74248,2.67319 -0.20435,0.41372 -0.35366,0.90413 -0.6131,1.24114 -0.4102,0.53289 -0.96103,0.80372 -1.37124,1.33661 -0.84206,1.09388 -1.65226,3.78819 -2.45241,4.96459 -3.14503,4.62398 -0.10907,-1.21846 -1.98434,2.57775 -0.20436,0.41373 -0.40875,0.82744 -0.61311,1.24115 -0.20436,0.41372 -0.32402,0.95936 -0.61311,1.24115 -0.20441,0.19923 -0.61362,-0.19709 -0.75813,0.0954 -0.14451,0.29253 0.28954,0.85316 0.14503,1.1457 -0.14451,0.29254 -0.70978,0.47735 -0.75813,0.0954 -0.0484,-0.3819 0.55372,0.10379 0.75813,-0.0954 0.28909,-0.28178 0.40875,-0.82743 0.6131,-1.24115 0.81747,-1.65486 1.63495,-3.30972 2.45243,-4.9646 0.40873,-0.82742 0.75347,-1.73724 1.22619,-2.48229 1.28773,-2.02954 6.14464,-7.31704 6.71117,-7.82869 1.32306,-1.19486 2.96594,-1.60393 4.25875,-2.86409 0.20442,-0.19924 0.10771,-1.17751 -0.14503,-1.14569 -0.35738,0.0449 -0.32401,0.95936 -0.61311,1.24114 -7.26522,7.08169 0.1761,-3.23506 -6.4211,10.12008 -0.72255,1.46271 -1.80569,2.44176 -2.59744,3.81889 -0.89576,1.55806 -1.55665,3.40655 -2.45241,4.9646 -0.79176,1.37714 -1.8749,2.35619 -2.59745,3.8189 -0.72254,1.4627 -1.05551,3.31581 -1.69429,4.86914 -0.54202,1.31804 -1.3297,2.37391 -1.8393,3.72344 -0.2686,0.71127 -0.31205,1.59124 -0.46807,2.38684 -0.31135,1.58764 -1.06992,3.63446 0.58013,4.5828 0.7392,0.42485 1.8596,-1.21869 2.12937,-1.43206 0.68521,-0.54193 1.52275,-0.72442 2.12938,-1.43204 0.54257,-0.6329 0.81747,-1.65485 1.2262,-2.48229 0.61311,-1.24115 1.08607,-2.67184 1.83932,-3.72344 0.79398,-1.1085 1.86847,-1.7023 2.74247,-2.6732 0.70464,-0.78276 1.32289,-1.71849 1.98434,-2.57774 1.32289,-1.71849 2.72,-3.3196 3.96869,-5.15549 0.2449,-0.36004 0.32403,-0.95937 0.61311,-1.24115 0.89388,-0.8713 1.03891,0.2744 0.14503,1.1457 -1.68865,1.64599 0.2634,-3.41182 -2.12938,1.43204 -0.32314,0.65415 -0.27003,1.618 -0.46807,2.38686 -0.31932,1.23974 -0.76185,2.38823 -1.08117,3.62799 -0.39607,1.53773 -0.48913,3.27371 -0.93616,4.77369 -0.17497,0.58718 -1.25417,2.26128 -1.2262,2.4823 0.0683,0.54009 0.55294,0.84895 0.90317,1.05024 0.73921,0.42486 1.85962,-1.21868 2.12938,-1.43205 5.34849,-4.23011 -1.19838,1.89133 4.11372,-4.00978 0.87399,-0.9709 1.86848,-1.7023 2.74247,-2.6732 3.39079,-3.76676 0.52045,-1.70646 4.72684,-5.25093 0.6743,-0.5682 1.52275,-0.72444 2.12937,-1.43205 2.76433,-3.22465 -0.37181,-2.28112 2.74247,-2.67321 0.25271,-0.0318 -0.55373,-0.10379 -0.75814,0.0954 -0.28908,0.28178 -0.40873,0.82743 -0.6131,1.24114 -0.40873,0.82745 -0.76462,1.72166 -1.2262,2.4823 -0.81594,1.34465 -1.73164,2.54593 -2.59744,3.81889 -0.86582,1.27296 -1.65407,2.67196 -2.59746,3.8189 -0.84378,1.02585 -1.94849,1.56471 -2.74248,2.67319 -0.75324,1.05161 -1.2262,2.48229 -1.83931,3.72344 -0.40873,0.82744 -0.90672,1.56417 -1.22621,2.4823 -0.25256,0.72585 -0.31204,1.59124 -0.46807,2.38684 -0.56674,2.89006 -0.94408,1.83334 0.43509,3.43711 0.30106,0.35009 0.54251,0.92213 0.90318,1.05024 0.39919,0.1418 5.178,-0.59213 5.30695,-0.66815 1.02729,-0.606 1.78886,-1.86963 2.74248,-2.67319 0.67431,-0.56819 1.45507,-0.86384 2.12937,-1.43205 0.95362,-0.80355 1.79754,-1.84951 2.74247,-2.67319 1.13788,-0.99183 2.39983,-1.69565 3.50062,-2.76864 0.73703,-0.71839 1.27972,-1.79497 1.98435,-2.57775 0.87399,-0.9709 1.82832,-1.78212 2.74248,-2.6732 0.45708,-0.44552 0.86934,-0.99906 1.37124,-1.33659 0.22445,-0.15096 0.61362,0.19709 0.75813,-0.0954 0.14451,-0.29253 0.10771,-1.1775 -0.14503,-1.14569 -0.24445,0.0308 -0.84524,2.11097 -1.2262,2.48229 -5.13144,5.00181 1.07768,-3.42315 -3.96869,5.15549 -2.76335,4.6976 -2.62236,3.40655 -5.95302,7.73325 -2.35852,3.06381 -2.28713,3.19067 -3.82367,6.30117 -0.87732,1.77606 -1.814,2.31525 -0.93614,4.7737 0.17787,0.49815 0.60211,0.70017 0.90317,1.05025 0.30105,0.35008 0.53986,0.96291 0.90317,1.05025 2.58154,0.62062 1.85342,-0.41764 3.64565,-1.62295 0.92545,-0.62238 1.9404,-0.96878 2.8875,-1.5275 0.7264,-0.4285 1.40298,-1.00353 2.12938,-1.43204 1.89421,-1.11743 3.92411,-1.81022 5.77503,-3.05499 0.50191,-0.33753 0.91414,-0.89106 1.37122,-1.33661 0.4571,-0.44552 0.96104,-0.8037 1.37126,-1.33659 0.25943,-0.33702 0.93054,-1.45462 0.61311,-1.24114 -6.63127,4.45964 0.61896,0.74633 -4.72684,5.25094 -0.87919,0.74084 -1.92501,1.01834 -2.88751,1.52749"
         style="opacity:0.5;fill:none;stroke:#37e332;stroke-width:9.99999905;stroke-linecap:round;stroke-linejoin:round;stroke-miterlimit:4;stroke-opacity:1;stroke-dasharray:none" />
      <path
         inkscape:connector-curvature="0"
         id="path4127"
         d="m 373.06734,589.11612 c 0.0654,9.11673 -0.14986,18.25429 0.14549,27.35697 -0.39672,2.50181 -2.05454,4.90237 -1.29748,7.48579 0.0519,3.6183 -0.008,7.23687 0.0173,10.85527 2.10136,-0.59686 0.14191,2.22791 2.50017,2.13712 2.60431,1.66728 5.76502,0.7358 8.36502,-0.34569 2.10635,-1.19636 4.69639,-1.36575 6.66363,-2.7938 1.85548,-1.05116 3.74766,-2.20059 5.97956,-2.51238 2.50755,-1.42582 5.7462,-1.97279 8.01901,-3.40857 2.03075,-0.51343 3.69431,-2.15723 5.88969,-2.98245 1.64231,0.37476 1.40369,-3.43012 2.65581,-1.72529 2.02911,-1.52971 4.59232,-3.95661 2.40942,-6.3157 -1.02852,-2.94658 -4.43729,-3.35485 -6.81812,-4.89089 -2.24414,-1.67795 -4.0139,-3.61551 -6.87867,-4.49983 -2.2139,-0.8018 -1.07587,-3.13863 -3.69436,-3.56822 -2.26215,-1.43072 -4.60658,-2.73195 -7.19984,-3.63591 -3.47972,-1.69596 -6.55655,-4.14565 -10.53422,-4.92864 -2.54973,-0.84802 -4.22749,-2.89211 -5.33715,-5.01575 -0.26302,-0.42063 -0.53888,-0.83873 -0.88519,-1.21203 z"
         style="fill:none;stroke:#000000;stroke-width:3;stroke-linecap:round;stroke-linejoin:round;stroke-miterlimit:4;stroke-opacity:1;stroke-dasharray:none" />
    </g>
    <g
       id="g4298"
       transform="matrix(0.82432432,0,0,0.82432432,-76.10957,-345.24718)">
      <path
         inkscape:connector-curvature="0"
         id="path4171"
         d="m 520,585.36218 c 0,-1.33333 -1.33333,-4 0,-4 1.33333,0 1.04116,3.16708 0,4 -13.28968,10.63175 1.03561,-9.05341 -7,3 -1.33333,2 -2.80743,3.91301 -4,6 -3.34816,5.85929 -0.51951,2.12732 -4,7 -1,1.33334 -2,2.66667 -3,4 -0.33333,1 -0.45767,2.09613 -1,3 -1.70771,2.84618 -2.22611,0.90443 -3,4 -0.16169,0.64676 0.29814,1.40372 0,2 -0.14907,0.29815 -0.7643,-0.2357 -1,0 -0.2357,0.2357 -0.2357,0.7643 0,1 0.2357,0.2357 0.66667,0 1,0 0.66667,0 1.36754,0.21082 2,0 0.44721,-0.14907 0.62288,-0.71715 1,-1 0.96148,-0.72111 2.06151,-1.24921 3,-2 4.10645,-3.28516 -0.38634,-0.92209 5,-4 1.2943,-0.7396 2.78696,-1.13354 4,-2 1.15079,-0.82199 1.91357,-2.09464 3,-3 2.7541,-2.29508 6.2459,-3.70492 9,-6 1.81071,-1.50893 3.33333,-3.33333 5,-5 0.66667,-0.66666 1.24575,-1.43431 2,-2 0.59628,-0.44721 1.40372,-0.55278 2,-1 0.75425,-0.56568 1.33333,-1.33333 2,-2 0.33333,-0.33333 0.73851,-0.60777 1,-1 0.41345,-0.62017 0.58655,-1.37982 1,-2 0.26149,-0.39223 0.66667,-1.33333 1,-1 0.33333,0.33334 -0.78918,0.57837 -1,1 -0.14907,0.29815 0.10541,0.68377 0,1 -0.2357,0.70711 -0.72318,1.30796 -1,2 -0.39148,0.9787 -0.5286,2.05719 -1,3 -1.07497,2.14994 -2.80743,3.91301 -4,6 -0.7396,1.2943 -1.20992,2.73588 -2,4 -2.64045,4.22472 -6.35955,7.77528 -9,12 -0.79008,1.26412 -1.33333,2.66667 -2,4 -0.66667,1.33334 -1.1731,2.75966 -2,4 -1.51585,2.27378 -3,1.79443 -3,5 0,0.33334 -0.2357,0.7643 0,1 0.2357,0.2357 0.66667,0 1,0 0.33333,0 0.72265,0.1849 1,0 0.78446,-0.52297 1.26379,-1.41103 2,-2 1.87698,-1.50158 4.30033,-2.30032 6,-4 1.17851,-1.17851 1.82149,-2.82149 3,-4 1.17851,-1.17851 2.74571,-1.90249 4,-3 1.41907,-1.24169 2.66667,-2.66666 4,-4 1.33333,-1.33333 2.75831,-2.58093 4,-4 1.09751,-1.25429 1.82149,-2.82149 3,-4 1.17851,-1.17851 2.82149,-1.82149 4,-3 0.84984,-0.84983 1.24921,-2.06151 2,-3 0.58897,-0.73621 1.33333,-1.33333 2,-2 0.33333,-0.33333 0.66667,-0.66666 1,-1 0.33333,-0.33333 1,-0.52859 1,-1 0,-0.33333 -0.70186,-0.14907 -1,0 -0.42164,0.21082 -0.66667,0.66667 -1,1 -0.66667,0.66667 -1.26379,1.41103 -2,2 -0.93849,0.75079 -2.15016,1.15017 -3,2 -2.35702,2.35703 -3.80498,5.49141 -6,8 -1.24169,1.41907 -2.74726,2.59067 -4,4 -1.418,1.59525 -2.66667,3.33334 -4,5 -1.33333,1.66667 -2.66667,3.33334 -4,5 -1.33333,1.66667 -2.77602,3.25145 -4,5 -1.11461,1.5923 -2,3.33334 -3,5 -1,1.66667 -2.05608,3.30095 -3,5 -0.72395,1.30312 -1.2604,2.7057 -2,4 -0.59628,1.0435 -1.55364,1.88411 -2,3 -0.24759,0.61899 0.16169,1.35324 0,2 -0.18078,0.7231 -1,1.25465 -1,2 0,0.47141 0.5286,1 1,1 0.4714,0 0.66667,-0.66666 1,-1 0.33333,-0.33333 0.71716,-0.62287 1,-1 0.72111,-0.96148 1.15016,-2.15016 2,-3 0.84984,-0.84983 2.23059,-1.07671 3,-2 0.95433,-1.14519 1.13354,-2.78696 2,-4 2.72132,-3.80985 3.58595,-2.58594 7,-6 1.17851,-1.17851 1.82149,-2.82149 3,-4 1.17851,-1.17851 2.73457,-1.91535 4,-3 6.73721,-5.77475 -0.6305,-0.57967 6,-5 1,-0.66666 2,-1.33333 3,-2 0.66667,-0.66666 1.24575,-1.43431 2,-2 0.59628,-0.44721 1.37983,-0.58655 2,-1 0.48554,-0.32369 1.80709,-2 2,-2 0.83142,0 -1.87694,4.7949 -2,5 -1.85025,3.08375 -4.21602,5.87803 -6,9 -0.7396,1.2943 -1.33333,2.66667 -2,4 -2.4714,4.94281 -1.5286,2.58579 -3,7 -1.21082,3.63246 -1,1.94591 -1,5 0,0.33334 -0.2357,0.7643 0,1 0.2357,0.2357 0.70186,-0.14907 1,0 0.42164,0.21082 0.5286,1 1,1 0.74536,0 1.33333,-0.66666 2,-1 0.66667,-0.33333 1.40372,-0.55278 2,-1 1.50849,-1.13137 2.49151,-2.86863 4,-4 1.19257,-0.89442 2.94591,-0.9459 4,-2 0.44444,-0.44444 -0.77778,-1.88889 1,-1 1.96304,0.98152 0.4502,1.9004 1,3 0.21082,0.42164 0.66667,0.66667 1,1"
         style="opacity:0.5;fill:none;stroke:#b85c35;stroke-width:12.13114738;stroke-linecap:round;stroke-linejoin:round;stroke-miterlimit:4;stroke-opacity:1;stroke-dasharray:none" />
      <path
         inkscape:connector-curvature="0"
         id="path4155"
         d="m 530.51012,600.67106 c -1.91478,-4.77679 -4.92217,-8.83908 -8.46098,-12.07323 -0.57326,-2.56075 -4.01189,-2.97221 -4.01514,-4.07253 -2.59819,-1.18448 -8.78373,1.03261 -8.34633,3.41357 -2.39342,-0.038 -3.2791,7.43749 -3.09691,10.30168 -0.65114,4.88736 1.74142,8.92539 3.53221,12.78592 1.43471,2.94711 3.97241,5.11449 7.51641,4.11367 -3.92133,1.1316 -6.67906,5.74533 -9.08594,9.03002 -2.50729,4.29628 -7.4095,7.71759 -7.0415,12.748 -2.40664,5.50051 1.21286,10.17353 6.47926,8.90449 3.95417,-0.0869 8.34896,-0.46584 10.48291,-5.58692 2.60341,-3.75114 6.00853,-7.42988 5.86236,-11.98179 1.47688,-2.44042 2.32826,-4.40239 2.69987,-1.12521 1.50633,1.50672 2.91059,6.91218 4.35951,7.21798 0.72793,3.16242 4.69957,7.92439 6.04539,8.04015 2.37761,3.07674 6.52129,3.93081 10.80182,2.2312 4.46854,-1.35175 4.67285,-7.6813 5.48064,-11.41644 -0.29462,-3.86198 -1.13731,-8.17086 -4.64923,-10.24202 -1.61858,-0.99463 -3.77048,-2.46009 -3.69925,-2.74052 -2.37163,-0.93769 -5.99457,-3.24527 -7.02832,-3.81862 4.21462,-3.30555 9.95273,-7.47032 13.61786,-12.32253 4.30099,-5.01935 5.96225,-12.7705 2.68237,-16.98022 -3.22775,-1.89308 -6.65155,-4.2742 -11.19433,-0.49355 -4.69474,1.63881 -7.35983,7.18553 -10.73093,9.61698 -1.82547,0.55219 -1.32485,3.12278 -2.21175,4.44992 z"
         style="fill:none;stroke:#000000;stroke-width:3.63934422;stroke-linecap:round;stroke-linejoin:round;stroke-miterlimit:4;stroke-opacity:1;stroke-dasharray:none" />
    </g>
    <g
       id="g4469"
       style="opacity:0">
      <path
         id="rect4451"
         transform="translate(2,5.3621826)"
         d="M 11.0625 10 C 10.474186 10 10 10.474186 10 11.0625 L 10 98.9375 C 10 99.525814 10.474186 100 11.0625 100 L 98.9375 100 C 99.525814 100 100 99.525814 100 98.9375 L 100 11.0625 C 100 10.474186 99.525814 10 98.9375 10 L 11.0625 10 z M 15.9375 15 L 94.0625 15 C 94.585446 15 95 15.414554 95 15.9375 L 95 94.0625 C 95 94.585446 94.585446 95 94.0625 95 L 15.9375 95 C 15.414554 95 15 94.585446 15 94.0625 L 15 15.9375 C 15 15.414554 15.414554 15 15.9375 15 z "
         style="opacity:0.50000000000000000;color:#000000;fill:#000000;fill-opacity:1;stroke:none;stroke-width:10;marker:none;visibility:visible;display:inline;overflow:visible;enable-background:accumulate" />
      <path
         id="rect4244"
         transform="translate(2,5.3621826)"
         d="M 11.0625 110 C 10.474186 110 10 110.47419 10 111.0625 L 10 198.9375 C 10 199.52581 10.474186 200 11.0625 200 L 98.9375 200 C 99.525814 200 100 199.52581 100 198.9375 L 100 111.0625 C 100 110.47419 99.525814 110 98.9375 110 L 11.0625 110 z M 15.9375 115 L 94.0625 115 C 94.585446 115 95 115.41455 95 115.9375 L 95 194.0625 C 95 194.58545 94.585446 195 94.0625 195 L 15.9375 195 C 15.414554 195 15 194.58545 15 194.0625 L 15 115.9375 C 15 115.41455 15.414554 115 15.9375 115 z "
         style="opacity:0.50000000000000000;color:#000000;fill:#000000;fill-opacity:1;stroke:none;stroke-width:10;marker:none;visibility:visible;display:inline;overflow:visible;enable-background:accumulate" />
      <path
         id="rect4312"
         transform="translate(2,5.3621826)"
         d="M 11.0625 210 C 10.474186 210 10 210.47419 10 211.0625 L 10 298.9375 C 10 299.52581 10.474186 300 11.0625 300 L 98.9375 300 C 99.525814 300 100 299.52581 100 298.9375 L 100 211.0625 C 100 210.47419 99.525814 210 98.9375 210 L 11.0625 210 z M 15.9375 215 L 94.0625 215 C 94.585446 215 95 215.41455 95 215.9375 L 95 294.0625 C 95 294.58545 94.585446 295 94.0625 295 L 15.9375 295 C 15.414554 295 15 294.58545 15 294.0625 L 15 215.9375 C 15 215.41455 15.414554 215 15.9375 215 z "
         style="opacity:0.50000000000000000;color:#000000;fill:#000000;fill-opacity:1;stroke:none;stroke-width:10;marker:none;visibility:visible;display:inline;overflow:visible;enable-background:accumulate" />
      <path
         id="rect4316"
         transform="translate(2,5.3621826)"
         d="M 211.0625 10 C 210.47419 10 210 10.474186 210 11.0625 L 210 98.9375 C 210 99.525814 210.47419 100 211.0625 100 L 298.9375 100 C 299.52581 100 300 99.525814 300 98.9375 L 300 11.0625 C 300 10.474186 299.52581 10 298.9375 10 L 211.0625 10 z M 215.9375 15 L 294.0625 15 C 294.58545 15 295 15.414554 295 15.9375 L 295 94.0625 C 295 94.585446 294.58545 95 294.0625 95 L 215.9375 95 C 215.41455 95 215 94.585446 215 94.0625 L 215 15.9375 C 215 15.414554 215.41455 15 215.9375 15 z "
         style="opacity:0.50000000000000000;color:#000000;fill:#000000;fill-opacity:1;stroke:none;stroke-width:10;marker:none;visibility:visible;display:inline;overflow:visible;enable-background:accumulate" />
      <path
         id="rect4320"
         transform="translate(2,5.3621826)"
         d="M 211.0625 210 C 210.47419 210 210 210.47419 210 211.0625 L 210 298.9375 C 210 299.52581 210.47419 300 211.0625 300 L 298.9375 300 C 299.52581 300 300 299.52581 300 298.9375 L 300 211.0625 C 300 210.47419 299.52581 210 298.9375 210 L 211.0625 210 z M 215.9375 215 L 294.0625 215 C 294.58545 215 295 215.41455 295 215.9375 L 295 294.0625 C 295 294.58545 294.58545 295 294.0625 295 L 215.9375 295 C 215.41455 295 215 294.58545 215 294.0625 L 215 215.9375 C 215 215.41455 215.41455 215 215.9375 215 z "
         style="opacity:0.50000000000000000;color:#000000;fill:#000000;fill-opacity:1;stroke:none;stroke-width:10;marker:none;visibility:visible;display:inline;overflow:visible;enable-background:accumulate" />
      <path
         id="rect4324"
         transform="translate(2,5.3621826)"
         d="M 311.0625 210 C 310.47419 210 310 210.47419 310 211.0625 L 310 298.9375 C 310 299.52581 310.47419 300 311.0625 300 L 398.9375 300 C 399.52581 300 400 299.52581 400 298.9375 L 400 211.0625 C 400 210.47419 399.52581 210 398.9375 210 L 311.0625 210 z M 315.9375 215 L 394.0625 215 C 394.58545 215 395 215.41455 395 215.9375 L 395 294.0625 C 395 294.58545 394.58545 295 394.0625 295 L 315.9375 295 C 315.41455 295 315 294.58545 315 294.0625 L 315 215.9375 C 315 215.41455 315.41455 215 315.9375 215 z "
         style="opacity:0.50000000000000000;color:#000000;fill:#000000;fill-opacity:1;stroke:none;stroke-width:10;marker:none;visibility:visible;display:inline;overflow:visible;enable-background:accumulate" />
      <path
         id="rect4328"
         transform="translate(2,5.3621826)"
         d="M 311.0625 110 C 310.47419 110 310 110.47419 310 111.0625 L 310 198.9375 C 310 199.52581 310.47419 200 311.0625 200 L 398.9375 200 C 399.52581 200 400 199.52581 400 198.9375 L 400 111.0625 C 400 110.47419 399.52581 110 398.9375 110 L 311.0625 110 z M 315.9375 115 L 394.0625 115 C 394.58545 115 395 115.41455 395 115.9375 L 395 194.0625 C 395 194.58545 394.58545 195 394.0625 195 L 315.9375 195 C 315.41455 195 315 194.58545 315 194.0625 L 315 115.9375 C 315 115.41455 315.41455 115 315.9375 115 z "
         style="opacity:0.50000000000000000;color:#000000;fill:#000000;fill-opacity:1;stroke:none;stroke-width:10;marker:none;visibility:visible;display:inline;overflow:visible;enable-background:accumulate" />
      <path
         id="rect4332"
         transform="translate(2,5.3621826)"
         d="M 211.0625 110 C 210.47419 110 210 110.47419 210 111.0625 L 210 198.9375 C 210 199.52581 210.47419 200 211.0625 200 L 298.9375 200 C 299.52581 200 300 199.52581 300 198.9375 L 300 111.0625 C 300 110.47419 299.52581 110 298.9375 110 L 211.0625 110 z M 215.9375 115 L 294.0625 115 C 294.58545 115 295 115.41455 295 115.9375 L 295 194.0625 C 295 194.58545 294.58545 195 294.0625 195 L 215.9375 195 C 215.41455 195 215 194.58545 215 194.0625 L 215 115.9375 C 215 115.41455 215.41455 115 215.9375 115 z "
         style="opacity:0.50000000000000000;color:#000000;fill:#000000;fill-opacity:1;stroke:none;stroke-width:10;marker:none;visibility:visible;display:inline;overflow:visible;enable-background:accumulate" />
      <path
         id="rect4336"
         transform="translate(2,5.3621826)"
         d="M 311.0625 10 C 310.47419 10 310 10.474186 310 11.0625 L 310 98.9375 C 310 99.525814 310.47419 100 311.0625 100 L 398.9375 100 C 399.52581 100 400 99.525814 400 98.9375 L 400 11.0625 C 400 10.474186 399.52581 10 398.9375 10 L 311.0625 10 z M 315.9375 15 L 394.0625 15 C 394.58545 15 395 15.414554 395 15.9375 L 395 94.0625 C 395 94.585446 394.58545 95 394.0625 95 L 315.9375 95 C 315.41455 95 315 94.585446 315 94.0625 L 315 15.9375 C 315 15.414554 315.41455 15 315.9375 15 z "
         style="opacity:0.50000000000000000;color:#000000;fill:#000000;fill-opacity:1;stroke:none;stroke-width:10;marker:none;visibility:visible;display:inline;overflow:visible;enable-background:accumulate" />
      <path
         id="rect4340"
         transform="translate(2,5.3621826)"
         d="M 111.0625 210 C 110.47419 210 110 210.47419 110 211.0625 L 110 298.9375 C 110 299.52581 110.47419 300 111.0625 300 L 198.9375 300 C 199.52581 300 200 299.52581 200 298.9375 L 200 211.0625 C 200 210.47419 199.52581 210 198.9375 210 L 111.0625 210 z M 115.9375 215 L 194.0625 215 C 194.58545 215 195 215.41455 195 215.9375 L 195 294.0625 C 195 294.58545 194.58545 295 194.0625 295 L 115.9375 295 C 115.41455 295 115 294.58545 115 294.0625 L 115 215.9375 C 115 215.41455 115.41455 215 115.9375 215 z "
         style="opacity:0.50000000000000000;color:#000000;fill:#000000;fill-opacity:1;stroke:none;stroke-width:10;marker:none;visibility:visible;display:inline;overflow:visible;enable-background:accumulate" />
      <path
         id="rect4344"
         transform="translate(2,5.3621826)"
         d="M 111.0625 110 C 110.47419 110 110 110.47419 110 111.0625 L 110 198.9375 C 110 199.52581 110.47419 200 111.0625 200 L 198.9375 200 C 199.52581 200 200 199.52581 200 198.9375 L 200 111.0625 C 200 110.47419 199.52581 110 198.9375 110 L 111.0625 110 z M 115.9375 115 L 194.0625 115 C 194.58545 115 195 115.41455 195 115.9375 L 195 194.0625 C 195 194.58545 194.58545 195 194.0625 195 L 115.9375 195 C 115.41455 195 115 194.58545 115 194.0625 L 115 115.9375 C 115 115.41455 115.41455 115 115.9375 115 z "
         style="opacity:0.50000000000000000;color:#000000;fill:#000000;fill-opacity:1;stroke:none;stroke-width:10;marker:none;visibility:visible;display:inline;overflow:visible;enable-background:accumulate" />
      <path
         id="rect4389"
         transform="translate(2,5.3621826)"
         d="M 111.0625 10 C 110.47419 10 110 10.474186 110 11.0625 L 110 98.9375 C 110 99.525814 110.47419 100 111.0625 100 L 198.9375 100 C 199.52581 100 200 99.525814 200 98.9375 L 200 11.0625 C 200 10.474186 199.52581 10 198.9375 10 L 111.0625 10 z M 115.9375 15 L 194.0625 15 C 194.58545 15 195 15.414554 195 15.9375 L 195 94.0625 C 195 94.585446 194.58545 95 194.0625 95 L 115.9375 95 C 115.41455 95 115 94.585446 115 94.0625 L 115 15.9375 C 115 15.414554 115.41455 15 115.9375 15 z "
         style="opacity:0.50000000000000000;color:#000000;fill:#000000;fill-opacity:1;stroke:none;stroke-width:10;marker:none;visibility:visible;display:inline;overflow:visible;enable-background:accumulate" />
    </g>
    <g
       id="g4302"
       transform="matrix(0.76932461,0,0,0.76932461,-145.73409,-496.36787)">
      <path
         inkscape:connector-curvature="0"
         id="path4223"
         d="m 386,683.36218 c -2.11491,4.76375 -4.88316,9.23712 -7,14 -0.72904,1.64034 -1.19723,3.39446 -2,5 -0.86923,1.73846 -2.13077,3.26155 -3,5 -0.80277,1.60555 -1.12824,3.43084 -2,5 -5.80473,10.44852 -0.52023,-2.94605 -5,9 -0.74023,1.97396 -1.21704,4.0426 -2,6 -0.27682,0.69205 -0.7643,1.2929 -1,2 -0.10541,0.31623 -0.33333,1 0,1 0.4714,0 0.71716,-0.62287 1,-1 0.72111,-0.96148 1.23059,-2.07671 2,-3 0.90536,-1.08643 2.07964,-1.92625 3,-3 2.1693,-2.53085 3.64298,-5.64297 6,-8 1.17851,-1.17851 2.73457,-1.91535 4,-3 2.1475,-1.84071 3.82714,-4.18928 6,-6 0.92329,-0.7694 2,-1.33333 3,-2 1,-0.66666 2.03852,-1.27889 3,-2 1.01501,-0.76125 1.38796,-2 3,-2 0.33333,0 0.10541,0.68377 0,1 -0.74838,2.24514 -1.85894,2.71789 -3,5 -5.60948,11.21895 5.32352,-7.56616 -3,7 -0.59628,1.0435 -1.52657,1.89533 -2,3 -0.54139,1.26325 -0.45861,2.73676 -1,4 -0.47343,1.10468 -1.46252,1.92503 -2,3 -1.10389,2.20779 -1,3.72326 -1,6 0,0.33334 -0.33333,1 0,1 0.4714,0 0.66667,-0.66666 1,-1 0.66667,-0.66666 1.33333,-1.33333 2,-2 3,-3 6,-6 9,-9 1,-1 1.91357,-2.09464 3,-3 0.92329,-0.7694 2.03852,-1.27889 3,-2 0.22316,-0.16736 1.24457,-1.75542 2,-1 0.2357,0.2357 0,0.66667 0,1 0,0.33334 0.10541,0.68377 0,1 -0.4714,1.41422 -1.33333,2.66667 -2,4 -0.66667,1.33334 -1.33333,2.66667 -2,4 -0.33333,0.66667 -0.58655,1.37983 -1,2 -0.26149,0.39223 -0.78918,0.57837 -1,1 -0.41381,0.82762 0.34951,1.67476 1,2 0.85052,0.42526 2.70276,-0.80184 3,-1 1.1767,-0.78446 1.86863,-2.15147 3,-3 0.59628,-0.44721 1.40372,-0.55278 2,-1 3.08323,-2.31242 1.54872,-3 6,-3 1.76016,0 2,-0.8271 2,1 0,0.33334 0.0808,0.67662 0,1 -0.25565,1.02262 -0.66667,2 -1,3 -0.33333,1 -0.47702,2.08479 -1,3 -0.8269,1.44707 -2.11667,2.58667 -3,4 -0.79008,1.26412 -1.2604,2.7057 -2,4 -0.59628,1.0435 -1.40372,1.9565 -2,3 -1.1094,1.94145 -2,4 -3,6 -1.14907,2.29815 -1,1.25465 -1,3 0,0.33334 -0.2357,0.7643 0,1 0.2357,0.2357 0.66667,0 1,0 0.33333,0 0.72265,0.1849 1,0 0.78446,-0.52297 1.26379,-1.41103 2,-2 1.87698,-1.50158 4.15343,-2.46119 6,-4 1.08643,-0.90535 1.92625,-2.07964 3,-3 1.26543,-1.08465 2.71963,-1.93302 4,-3 0.72429,-0.60357 1.15673,-1.57836 2,-2 0.59628,-0.29814 1.36754,0.21082 2,0 0.44721,-0.14907 0.5286,-1 1,-1 0.33333,0 0.14907,0.70186 0,1 -0.21082,0.42164 -0.66667,0.66667 -1,1 -1.33333,1.33334 -2.66667,2.66667 -4,4 -1,1 -2.09464,1.91357 -3,3 -0.76941,0.92329 -1.15016,2.15017 -2,3 -0.84984,0.84984 -2.15016,1.15017 -3,2 -0.84984,0.84984 -1.24921,2.06152 -2,3 -0.58897,0.73621 -1.33333,1.33334 -2,2 -1.33333,1.33334 -2.66667,2.66667 -4,4 -1,1 -2,2 -3,3 -0.33333,0.33334 -0.5286,1 -1,1 -1.21232,0 0.24891,-1.24891 1,-2 0.33333,-0.33333 0.66667,-0.66666 1,-1 0.33333,-0.33333 0.78918,-0.57836 1,-1 0.14907,-0.29814 -0.2357,-0.7643 0,-1 0.2357,-0.2357 0.66667,0 1,0 0.33333,0 0.66667,0 1,0 -2.66667,1.66667 -5.33333,3.33334 -8,5 -0.33333,0.33334 -0.60777,0.73851 -1,1 -0.62017,0.41345 -1.37983,0.58655 -2,1 -0.76042,0.50695 -2,2.61148 -2,1 0,-0.33333 0.66667,0 1,0 0.33333,0 0.66667,0 1,0"
         style="opacity:0.5;fill:none;stroke:#b39d60;stroke-width:12.99841404;stroke-linecap:round;stroke-linejoin:round;stroke-miterlimit:4;stroke-opacity:1;stroke-dasharray:none" />
      <path
         inkscape:connector-curvature="0"
         id="path4216"
         d="m 387.42544,690.25626 c 0.49264,2.55528 -1.14437,9.72146 -1.19307,14.47282 3.73539,0.17504 11.24902,-0.72754 16.10551,1.5543 8.83536,2.99656 17.35393,8.62231 20.63995,17.45098 1.3327,7.6334 1.20939,15.80764 -1.07808,23.26511 -3.71638,7.38273 -10.88986,13.48267 -19.55611,14.37742 -6.22315,0.68275 -14.03897,3.96156 -19.30915,-0.59472 -2.04001,-5.47831 -3.46777,-14.58049 4.9944,-15.36687 6.68165,0.10338 15.31658,-1.52155 16.88607,-8.99641 3.22482,-7.06405 -0.59589,-14.45863 -5.43482,-19.81722 -3.49309,-2.15506 -14.36162,-6.01708 -13.82369,0.21445 -0.54958,4.3135 0.87142,15.56488 -6.18927,9.97835 -4.36709,-4.91751 -11.40875,-2.84525 -15.97696,-7.08518 -7.72163,-3.08972 2.81735,-9.86469 5.98947,-13.27324 5.98335,-5.41427 11.36047,-11.39967 17.94575,-16.17979 z"
         style="fill:none;stroke:#000000;stroke-width:3.89952421;stroke-linecap:butt;stroke-linejoin:miter;stroke-miterlimit:4;stroke-opacity:1;stroke-dasharray:none" />
    </g>
    <g
       id="g4447"
       transform="matrix(0.51804442,0,0,0.51804442,-155.18303,-65.987873)">
      <path
         inkscape:connector-curvature="0"
         id="path4445"
         d="m 373,209.36218 c 1.14758,3.42111 -1.56539,5.95771 -2,9 -0.18856,1.31994 0.16538,2.67697 0,4 -0.17047,1.36376 -0.84823,2.63404 -1,4 -0.18405,1.65648 0.18405,3.34353 0,5 -0.15177,1.36597 -0.84823,2.63404 -1,4 -0.18405,1.65648 0.16584,3.34161 0,5 -0.16912,1.69124 -0.8123,3.31073 -1,5 -0.14724,1.32518 0,2.66667 0,4 0,1.33334 0,2.66667 0,4 0,1.33334 0.18856,2.68007 0,4 -0.14907,1.0435 -0.82671,1.96025 -1,3 -0.22576,1.35458 0,5.34412 0,7 0,0.33334 -0.2357,0.7643 0,1 0.2357,0.2357 0.7643,0.2357 1,0 0.2357,-0.2357 -0.1849,-0.72265 0,-1 0.52298,-0.78446 1.33333,-1.33333 2,-2 0.33333,-1 0.5286,-2.05719 1,-3 0.53748,-1.07497 1.40372,-1.9565 2,-3 0.7396,-1.2943 1.33333,-2.66666 2,-4 1.33333,-2.66666 2.66667,-5.33333 4,-8 5.06754,-10.13508 -1.49071,2.38514 5,-8 0.79008,-1.26412 1.20992,-2.73588 2,-4 1.76666,-2.82666 4.06254,-5.28755 6,-8 3.48049,-4.87268 0.65184,-1.14071 4,-7 0.59628,-1.0435 1.46252,-1.92503 2,-3 0.4714,-0.94281 0.5286,-2.05719 1,-3 0.21082,-0.42163 0.78918,-0.57836 1,-1 0.29882,-0.59763 -0.18689,-2 -1,-2 -0.33333,0 0.14907,0.70186 0,1 -0.21082,0.42164 -0.85093,0.55279 -1,1 -0.21082,0.63246 0.29814,1.40372 0,2 -0.42164,0.84328 -1.57836,1.15673 -2,2 -1.18,2.36 -0.82,4.64001 -2,7 -0.53748,1.07497 -1.46252,1.92503 -2,3 -0.4714,0.94281 -0.66667,2 -1,3 -0.33333,1 -0.74435,1.97738 -1,3 -0.0808,0.32338 0,0.66667 0,1 0,0.33334 -0.2357,0.7643 0,1 0.70829,0.70829 2.13933,-0.85244 3,-2 0.44721,-0.59628 0.66667,-1.33333 1,-2 0.66667,-1.33333 1.20992,-2.73588 2,-4 0.88333,-1.41333 2.11667,-2.58667 3,-4 0.79008,-1.26412 1.20992,-2.73588 2,-4 0.88333,-1.41333 2.1906,-2.54307 3,-4 0.87176,-1.56916 1.12824,-3.43084 2,-5 0.8094,-1.45693 2.11667,-2.58667 3,-4 5.2022,-8.32352 -0.40237,-0.19526 3,-7 0.21082,-0.42163 1,-0.52859 1,-1 0,-0.33333 -0.7643,-0.2357 -1,0 -0.52705,0.52705 -0.61652,1.36087 -1,2 -1.12163,1.86938 -4.6015,6.00752 -5,8 -0.32686,1.6343 0,3.33334 0,5 0,0.66667 0,1.33334 0,2 0,0.33334 -0.2357,0.7643 0,1 0.2357,0.2357 0.70186,-0.14907 1,0 0.42164,0.21082 0.5286,1 1,1 0.19291,0 1.51446,-1.6763 2,-2 0.62017,-0.41345 1.47295,-0.47295 2,-1 5.19757,-5.19757 -0.94796,-1.04163 4,-5 0.93849,-0.75079 2.06151,-1.24921 3,-2 0.911,-0.7288 2.43432,-3 4,-3 0.4714,0 -0.78918,0.57837 -1,1 -0.14907,0.29815 0,0.66667 0,1 0,0.33334 -0.14907,0.70186 0,1 0.21082,0.42164 0.78918,0.57837 1,1 0.14907,0.29815 -0.2357,0.7643 0,1 0.2357,0.2357 0.7643,-0.2357 1,0 0.2357,0.2357 -0.2357,0.7643 0,1 0.2357,0.2357 0.70186,-0.14907 1,0 0.42164,0.21082 0.57836,0.78918 1,1 0.29814,0.14907 0.66667,0 1,0 0.66667,0 1.36754,0.21082 2,0 0.44721,-0.14907 0.60777,-0.73851 1,-1 0.62017,-0.41345 1.40372,-0.55278 2,-1 0.75425,-0.56568 1.33333,-1.33333 2,-2 1.66667,-1.66666 3.49107,-3.18928 5,-5 0.76941,-0.92328 1.23059,-2.07671 2,-3 2.52786,-3.03343 5.77037,-4.84691 9,-7 9.32692,-6.21794 -1.4037,0.13457 5,-2 0.44721,-0.14907 0.5286,-1 1,-1 0.33333,0 0.14907,0.70186 0,1 -0.21082,0.42164 -0.78918,0.57837 -1,1 -0.14907,0.29815 0.10541,0.68377 0,1 -0.4714,1.41422 -1.5286,2.58579 -2,4 -0.10541,0.31623 0.10541,0.68377 0,1 -1.29814,3.89443 -1,0.0935 -1,4 0,0.59763 -0.2357,2 1,2 0.33333,0 -0.10541,-0.68377 0,-1 0.2357,-0.7071 0.7643,-1.29289 1,-2 0.10541,-0.31623 -0.14907,-0.70185 0,-1 0.83357,-1.66714 2,-0.45184 2,-3 0,-0.33333 0.2357,-0.7643 0,-1 -0.2357,-0.2357 -0.66667,0 -1,0 -0.66667,0 -1.33333,0 -2,0 -3.66667,0 -7.33333,0 -11,0 -1.33333,0 -2.67696,0.16538 -4,0 -6.40121,-0.80015 -1.67452,-1.73255 -9,-1 -1.69124,0.16913 -3.30731,0.84612 -5,1 -1.99179,0.18107 -4.02721,-0.3288 -6,0 -1.40015,0.23336 -9.40923,3.20462 -11,4 -1.73845,0.86923 -3.29368,2.06928 -5,3 -3.16281,1.72517 -8.05986,3.71323 -11,6 -4.46504,3.47281 -3.49925,3.99915 -7,8 -4.0232,4.59794 -3.48093,2.59163 -6,7 -0.7396,1.2943 -1.41278,2.62982 -2,4 -0.41523,0.96887 -0.66667,2 -1,3 -0.33333,1 -0.79328,1.96638 -1,3 -0.0832,0.4159 -0.18238,4.63525 0,5 0.21082,0.42164 0.66667,0.66667 1,1 0.33333,0.33334 0.55279,0.85093 1,1 2.18641,0.72881 4.15073,-1.26029 6,-2 1.9574,-0.78296 4.0426,-1.21704 6,-2 0.69205,-0.27682 1.30795,-0.72318 2,-1 0.9787,-0.39148 2.0213,-0.60852 3,-1 0.69205,-0.27682 1.37983,-0.58655 2,-1 0.39223,-0.26149 0.55279,-0.85093 1,-1 0.63246,-0.21082 1.33333,0 2,0 0.33333,0 0.66667,0 1,0 0.33333,0 0.7643,-0.2357 1,0 0.2357,0.2357 0,0.66667 0,1 0,0.33334 0,0.66667 0,1 0,0.55816 0.15259,4.54224 0,5 -0.14907,0.44722 -0.85093,0.55279 -1,1 -0.21082,0.63246 0,1.33334 0,2 -0.33333,1 -0.60852,2.0213 -1,3 -0.91435,2.28587 -1.59133,2.65222 -3,5 -0.38348,0.63914 -0.66667,1.33334 -1,2 -1.29814,2.59629 -1,1.25465 -1,4 0,0.33334 -0.2357,0.7643 0,1 0.80474,0.80474 1.70711,-0.90237 2,-1 0.63246,-0.21082 1.35324,0.16169 2,0 0.7231,-0.18077 1.33333,-0.66666 2,-1 1.33333,-0.66666 2.58579,-1.52859 4,-2 0.31623,-0.10541 0.66667,0 1,0 0.33333,0 0.7643,-0.2357 1,0 0.2357,0.2357 0,0.66667 0,1 0,0.66667 0.21082,1.36755 0,2 -0.14907,0.44722 -0.73851,0.60777 -1,1 -0.41345,0.62018 -0.55279,1.40372 -1,2 -0.56569,0.75425 -1.47702,1.21554 -2,2 -0.1849,0.27735 0.14907,0.70186 0,1 -0.21082,0.42164 -0.78918,0.57837 -1,1 -0.58629,1.17259 0.59344,1.18689 1,2 0.14907,0.29815 -0.2357,0.7643 0,1 0.2357,0.2357 0.66667,0 1,0 0.33333,0 0.66667,0 1,0 2,0 4,0 6,0 0.66667,0 1.36754,-0.21082 2,0 0.44721,0.14907 0.55279,0.85093 1,1 1.26491,0.42164 2.73509,-0.42163 4,0 0.89443,0.29815 1.15673,1.57837 2,2 0.29814,0.14907 0.70186,-0.14907 1,0 1.76578,0.88289 0.56118,1.68354 1,3 0.2357,0.70711 0.7643,1.2929 1,2 0.10541,0.31623 -0.14907,0.70186 0,1 0.21082,0.42164 0.85093,0.55279 1,1 0.31623,0.94869 -0.31623,2.05132 0,3 0.2357,0.70711 0.81922,1.2769 1,2 0.22031,0.88123 -0.2958,5.4084 0,6 1.14286,2.28572 0.85714,0.38095 2,0 0.63246,-0.21082 1.36754,0.21082 2,0 0.44721,-0.14907 0.66667,-0.66666 1,-1 0.66667,0 1.35324,0.16169 2,0 0.7231,-0.18077 1.37983,-0.58655 2,-1 0.69695,-0.46463 0.90955,-1.54522 2,-1 2.13333,1.06667 0.53333,0.93334 0,2 -0.14907,0.29815 0.14907,0.70186 0,1 -0.21082,0.42164 -0.78918,0.57837 -1,1 -0.14907,0.29815 0.14907,0.70186 0,1 -0.21082,0.42164 -0.78918,0.57837 -1,1 -0.14907,0.29815 0,0.66667 0,1 0,0.33334 -0.2357,0.7643 0,1 0.2357,0.2357 0.7643,-0.2357 1,0 0.2357,0.2357 -0.14907,0.70186 0,1 2.08088,4.16176 -0.069,-1.06903 2,1 0.2357,0.2357 0,0.66667 0,1 0.33333,0.33334 0.60777,0.73851 1,1 0.62017,0.41345 1.33333,0.66667 2,1 0.66667,0.33334 1.2769,0.81923 2,1 0.64676,0.16169 1.33333,0 2,0 2,0 4,0 6,0"
         style="opacity:0.5;fill:none;stroke:#5989b5;stroke-width:19.3033638;stroke-linecap:round;stroke-linejoin:round;stroke-miterlimit:4;stroke-opacity:1;stroke-dasharray:none" />
      <path
         id="path4401"
         d="m 435.4375,184.59375 c -4.61566,0.1014 -9.11659,2.7575 -10.71875,7.3125 -0.97892,2.20775 -1.36792,4.63453 -1.25,7.0625 -6.12376,1.04602 -11.90897,4.74907 -16.96875,8.1875 -5.14076,3.59957 -10.68999,6.58458 -16.6875,8.4375 -2.79275,1.61524 -5.7875,4.49049 -7.125,7.75 -1.77607,-0.68265 -3.6619,-1.08321 -5.5625,-1.1875 -6.95131,-0.96941 -13.95414,4.08766 -17.59375,9.875 -3.49254,5.20509 -5.44602,13.82379 0.53125,18 6.68702,4.87332 15.7999,3.68396 22.5625,-0.71875 0.38994,0.73605 0.89947,1.39097 1.59375,1.84375 8.46531,8.39711 18.4826,14.9027 28.34375,21.53125 -3.04289,5.71327 -3.71435,12.88223 0.5625,18.03125 8.86346,6.74253 21.39657,3.83203 30,-1.875 3.68425,-2.62246 7.67456,-5.67611 9.375,-9.96875 2.04423,-5.52077 -0.56579,-12.6846 -7.1875,-12.875 -4.72154,-1.17287 -5.49215,-1.49573 -12.8125,-2.25 -4.52028,-1.02448 -8.61218,-1.10693 -12.09375,0.625 -0.66425,-1.37622 -1.53935,-2.64377 -2.53125,-3.65625 -2.98855,-3.5402 -6.56604,-6.80322 -10.65625,-9.09375 -4.79685,-4.64647 -10.53379,-8.78341 -17,-10.625 1.43366,-3.35611 1.3695,-7.28358 0,-10.625 2.24887,-0.85858 4.46796,-2.17656 6.40625,-3.03125 10.80327,-5.14098 23.34871,-8.47424 31.96875,-17.0625 1.78572,1.61455 3.98798,2.75495 6.5625,3.15625 4.69872,1.38665 9.95006,1.74109 14.375,-0.8125 6.95972,-3.63401 13.49975,-11.47954 11.59375,-19.78125 -1.84593,-6.188 -8.88473,-8.42444 -14.75,-8.03125 -2.24076,0.0104 -4.46586,0.21616 -6.6875,0.46875 -1.37018,-0.47964 -2.81722,-0.71897 -4.25,-0.6875 z"
         style="fill:none;stroke:#000000;stroke-width:5.79100895;stroke-linecap:butt;stroke-linejoin:miter;stroke-miterlimit:4;stroke-opacity:1;stroke-dasharray:none"
         inkscape:connector-curvature="0" />
    </g>
  </g>
</svg>
